<svg width="1400" height="327" viewBox="0 0 1400 327" fill="none" xmlns="http://www.w3.org/2000/svg">
<rect width="1400" height="327" fill="black"/>
<rect x="80" y="51" width="328" height="67" rx="33.5" fill="#1A1A1A"/>
<path d="M110.818 96V72.7273H118.682C120.508 72.7273 122 73.0568 123.159 73.7159C124.326 74.3674 125.189 75.25 125.75 76.3636C126.311 77.4773 126.591 78.7197 126.591 80.0909C126.591 81.4621 126.311 82.7083 125.75 83.8295C125.197 84.9508 124.341 85.8447 123.182 86.5114C122.023 87.1705 120.538 87.5 118.727 87.5H113.091V85H118.636C119.886 85 120.89 84.7841 121.648 84.3523C122.405 83.9205 122.955 83.3371 123.295 82.6023C123.644 81.8598 123.818 81.0227 123.818 80.0909C123.818 79.1591 123.644 78.3258 123.295 77.5909C122.955 76.8561 122.402 76.2803 121.636 75.8636C120.871 75.4394 119.856 75.2273 118.591 75.2273H113.636V96H110.818ZM130.127 96V78.5455H132.718V81.1818H132.9C133.218 80.3182 133.794 79.6174 134.627 79.0795C135.46 78.5417 136.4 78.2727 137.445 78.2727C137.642 78.2727 137.888 78.2765 138.184 78.2841C138.479 78.2917 138.703 78.303 138.854 78.3182V81.0455C138.763 81.0227 138.555 80.9886 138.229 80.9432C137.911 80.8902 137.574 80.8636 137.218 80.8636C136.369 80.8636 135.612 81.0417 134.945 81.3977C134.286 81.7462 133.763 82.2311 133.377 82.8523C132.998 83.4659 132.809 84.1667 132.809 84.9545V96H130.127ZM147.953 96.3636C146.377 96.3636 144.995 95.9886 143.805 95.2386C142.623 94.4886 141.699 93.4394 141.032 92.0909C140.373 90.7424 140.044 89.1667 140.044 87.3636C140.044 85.5455 140.373 83.9583 141.032 82.6023C141.699 81.2462 142.623 80.1932 143.805 79.4432C144.995 78.6932 146.377 78.3182 147.953 78.3182C149.529 78.3182 150.907 78.6932 152.089 79.4432C153.279 80.1932 154.203 81.2462 154.862 82.6023C155.529 83.9583 155.862 85.5455 155.862 87.3636C155.862 89.1667 155.529 90.7424 154.862 92.0909C154.203 93.4394 153.279 94.4886 152.089 95.2386C150.907 95.9886 149.529 96.3636 147.953 96.3636ZM147.953 93.9545C149.15 93.9545 150.135 93.6477 150.907 93.0341C151.68 92.4205 152.252 91.6136 152.623 90.6136C152.995 89.6136 153.18 88.5303 153.18 87.3636C153.18 86.197 152.995 85.1098 152.623 84.1023C152.252 83.0947 151.68 82.2803 150.907 81.6591C150.135 81.0379 149.15 80.7273 147.953 80.7273C146.756 80.7273 145.771 81.0379 144.998 81.6591C144.226 82.2803 143.654 83.0947 143.282 84.1023C142.911 85.1098 142.726 86.197 142.726 87.3636C142.726 88.5303 142.911 89.6136 143.282 90.6136C143.654 91.6136 144.226 92.4205 144.998 93.0341C145.771 93.6477 146.756 93.9545 147.953 93.9545ZM159.316 78.5455H161.998V97.2727C161.998 98.3485 161.812 99.2803 161.441 100.068C161.077 100.856 160.524 101.466 159.782 101.898C159.047 102.33 158.119 102.545 156.998 102.545C156.907 102.545 156.816 102.545 156.725 102.545C156.634 102.545 156.543 102.545 156.452 102.545V100.045C156.543 100.045 156.626 100.045 156.702 100.045C156.778 100.045 156.861 100.045 156.952 100.045C157.77 100.045 158.369 99.803 158.748 99.3182C159.126 98.8409 159.316 98.1591 159.316 97.2727V78.5455ZM160.634 75.6364C160.111 75.6364 159.66 75.4583 159.282 75.1023C158.91 74.7462 158.725 74.3182 158.725 73.8182C158.725 73.3182 158.91 72.8902 159.282 72.5341C159.66 72.178 160.111 72 160.634 72C161.157 72 161.604 72.178 161.975 72.5341C162.354 72.8902 162.543 73.3182 162.543 73.8182C162.543 74.3182 162.354 74.7462 161.975 75.1023C161.604 75.4583 161.157 75.6364 160.634 75.6364ZM173.588 96.3636C171.906 96.3636 170.455 95.9924 169.235 95.25C168.023 94.5 167.088 93.4545 166.429 92.1136C165.777 90.7652 165.451 89.197 165.451 87.4091C165.451 85.6212 165.777 84.0455 166.429 82.6818C167.088 81.3106 168.004 80.2424 169.179 79.4773C170.36 78.7045 171.739 78.3182 173.315 78.3182C174.224 78.3182 175.122 78.4697 176.008 78.7727C176.895 79.0758 177.701 79.5682 178.429 80.25C179.156 80.9242 179.735 81.8182 180.167 82.9318C180.599 84.0455 180.815 85.4167 180.815 87.0455V88.1818H167.36V85.8636H178.088C178.088 84.8788 177.891 84 177.497 83.2273C177.11 82.4545 176.557 81.8447 175.838 81.3977C175.126 80.9508 174.285 80.7273 173.315 80.7273C172.247 80.7273 171.323 80.9924 170.542 81.5227C169.77 82.0455 169.175 82.7273 168.758 83.5682C168.342 84.4091 168.133 85.3106 168.133 86.2727V87.8182C168.133 89.1364 168.36 90.2538 168.815 91.1705C169.277 92.0795 169.917 92.7727 170.735 93.25C171.554 93.7197 172.504 93.9545 173.588 93.9545C174.292 93.9545 174.929 93.8561 175.497 93.6591C176.073 93.4545 176.569 93.1515 176.985 92.75C177.402 92.3409 177.724 91.8333 177.951 91.2273L180.542 91.9545C180.27 92.8333 179.811 93.6061 179.167 94.2727C178.523 94.9318 177.728 95.447 176.781 95.8182C175.834 96.1818 174.77 96.3636 173.588 96.3636ZM191.345 96.3636C189.709 96.3636 188.3 95.9773 187.118 95.2045C185.936 94.4318 185.027 93.3674 184.391 92.0114C183.755 90.6553 183.436 89.1061 183.436 87.3636C183.436 85.5909 183.762 84.0265 184.414 82.6705C185.073 81.3068 185.989 80.2424 187.164 79.4773C188.345 78.7045 189.724 78.3182 191.3 78.3182C192.527 78.3182 193.633 78.5455 194.618 79C195.603 79.4545 196.41 80.0909 197.039 80.9091C197.667 81.7273 198.058 82.6818 198.209 83.7727H195.527C195.323 82.9773 194.868 82.2727 194.164 81.6591C193.467 81.0379 192.527 80.7273 191.345 80.7273C190.3 80.7273 189.383 81 188.595 81.5455C187.815 82.0833 187.205 82.8447 186.766 83.8295C186.334 84.8068 186.118 85.9545 186.118 87.2727C186.118 88.6212 186.33 89.7955 186.755 90.7955C187.186 91.7955 187.792 92.572 188.573 93.125C189.361 93.678 190.285 93.9545 191.345 93.9545C192.042 93.9545 192.675 93.8333 193.243 93.5909C193.811 93.3485 194.292 93 194.686 92.5455C195.08 92.0909 195.361 91.5455 195.527 90.9091H198.209C198.058 91.9394 197.683 92.8674 197.084 93.6932C196.493 94.5114 195.709 95.1629 194.732 95.6477C193.762 96.125 192.633 96.3636 191.345 96.3636ZM209.08 78.5455V80.8182H200.035V78.5455H209.08ZM202.671 74.3636H205.353V91C205.353 91.7576 205.463 92.3258 205.683 92.7045C205.91 93.0758 206.198 93.3258 206.546 93.4545C206.902 93.5758 207.277 93.6364 207.671 93.6364C207.967 93.6364 208.209 93.6212 208.399 93.5909C208.588 93.553 208.74 93.5227 208.853 93.5L209.399 95.9091C209.217 95.9773 208.963 96.0455 208.637 96.1136C208.312 96.1894 207.899 96.2273 207.399 96.2273C206.641 96.2273 205.899 96.0644 205.171 95.7386C204.452 95.4129 203.853 94.9167 203.376 94.25C202.906 93.5833 202.671 92.7424 202.671 91.7273V74.3636ZM220.675 96V72.7273H224.891V82.5795H235.675V72.7273H239.903V96H235.675V86.1136H224.891V96H220.675ZM243.666 96V78.5455H247.78V96H243.666ZM245.734 76.0682C245.083 76.0682 244.522 75.8523 244.053 75.4205C243.583 74.9811 243.348 74.4545 243.348 73.8409C243.348 73.2197 243.583 72.6932 244.053 72.2614C244.522 71.822 245.083 71.6023 245.734 71.6023C246.393 71.6023 246.954 71.822 247.416 72.2614C247.886 72.6932 248.121 73.2197 248.121 73.8409C248.121 74.4545 247.886 74.9811 247.416 75.4205C246.954 75.8523 246.393 76.0682 245.734 76.0682ZM258.961 102.909C257.484 102.909 256.215 102.708 255.154 102.307C254.093 101.913 253.241 101.383 252.597 100.716C251.953 100.049 251.506 99.3106 251.256 98.5L254.961 97.6023C255.127 97.9432 255.37 98.2803 255.688 98.6136C256.006 98.9545 256.434 99.2348 256.972 99.4545C257.518 99.6818 258.203 99.7955 259.029 99.7955C260.196 99.7955 261.162 99.5114 261.927 98.9432C262.692 98.3826 263.074 97.4583 263.074 96.1705V92.8636H262.87C262.658 93.2879 262.347 93.7235 261.938 94.1705C261.537 94.6174 261.002 94.9924 260.336 95.2955C259.677 95.5985 258.847 95.75 257.847 95.75C256.506 95.75 255.29 95.4356 254.199 94.8068C253.116 94.1705 252.252 93.2235 251.609 91.9659C250.972 90.7008 250.654 89.1174 250.654 87.2159C250.654 85.2992 250.972 83.6818 251.609 82.3636C252.252 81.0379 253.12 80.0341 254.211 79.3523C255.302 78.6629 256.518 78.3182 257.859 78.3182C258.881 78.3182 259.722 78.4924 260.381 78.8409C261.048 79.1818 261.578 79.5947 261.972 80.0795C262.366 80.5568 262.665 81.0076 262.87 81.4318H263.097V78.5455H267.154V96.2841C267.154 97.7765 266.798 99.0114 266.086 99.9886C265.374 100.966 264.4 101.697 263.165 102.182C261.93 102.667 260.529 102.909 258.961 102.909ZM258.995 92.5227C259.866 92.5227 260.609 92.3106 261.222 91.8864C261.836 91.4621 262.302 90.8523 262.62 90.0568C262.938 89.2614 263.097 88.3068 263.097 87.1932C263.097 86.0947 262.938 85.1326 262.62 84.3068C262.309 83.4811 261.847 82.8409 261.234 82.3864C260.627 81.9242 259.881 81.6932 258.995 81.6932C258.078 81.6932 257.313 81.9318 256.699 82.4091C256.086 82.8864 255.624 83.5417 255.313 84.375C255.002 85.2008 254.847 86.1402 254.847 87.1932C254.847 88.2614 255.002 89.197 255.313 90C255.631 90.7955 256.097 91.4167 256.711 91.8636C257.332 92.303 258.093 92.5227 258.995 92.5227ZM274.844 85.7727V96H270.73V72.7273H274.753V81.5114H274.957C275.366 80.5265 275.999 79.75 276.855 79.1818C277.719 78.6061 278.817 78.3182 280.15 78.3182C281.362 78.3182 282.419 78.572 283.321 79.0795C284.222 79.5871 284.919 80.3295 285.412 81.3068C285.912 82.2841 286.162 83.4773 286.162 84.8864V96H282.048V85.5227C282.048 84.3485 281.745 83.4356 281.139 82.7841C280.54 82.125 279.7 81.7955 278.616 81.7955C277.889 81.7955 277.237 81.9545 276.662 82.2727C276.094 82.5833 275.647 83.0341 275.321 83.625C275.003 84.2159 274.844 84.9318 274.844 85.7727ZM293.829 72.7273V96H289.715V72.7273H293.829ZM297.419 96V78.5455H301.532V96H297.419ZM299.487 76.0682C298.835 76.0682 298.275 75.8523 297.805 75.4205C297.335 74.9811 297.1 74.4545 297.1 73.8409C297.1 73.2197 297.335 72.6932 297.805 72.2614C298.275 71.822 298.835 71.6023 299.487 71.6023C300.146 71.6023 300.707 71.822 301.169 72.2614C301.638 72.6932 301.873 73.2197 301.873 73.8409C301.873 74.4545 301.638 74.9811 301.169 75.4205C300.707 75.8523 300.146 76.0682 299.487 76.0682ZM312.713 102.909C311.236 102.909 309.967 102.708 308.906 102.307C307.846 101.913 306.994 101.383 306.35 100.716C305.706 100.049 305.259 99.3106 305.009 98.5L308.713 97.6023C308.88 97.9432 309.122 98.2803 309.441 98.6136C309.759 98.9545 310.187 99.2348 310.725 99.4545C311.27 99.6818 311.956 99.7955 312.781 99.7955C313.948 99.7955 314.914 99.5114 315.679 98.9432C316.444 98.3826 316.827 97.4583 316.827 96.1705V92.8636H316.622C316.41 93.2879 316.1 93.7235 315.691 94.1705C315.289 94.6174 314.755 94.9924 314.088 95.2955C313.429 95.5985 312.6 95.75 311.6 95.75C310.259 95.75 309.043 95.4356 307.952 94.8068C306.869 94.1705 306.005 93.2235 305.361 91.9659C304.725 90.7008 304.406 89.1174 304.406 87.2159C304.406 85.2992 304.725 83.6818 305.361 82.3636C306.005 81.0379 306.872 80.0341 307.963 79.3523C309.054 78.6629 310.27 78.3182 311.611 78.3182C312.634 78.3182 313.475 78.4924 314.134 78.8409C314.8 79.1818 315.331 79.5947 315.725 80.0795C316.119 80.5568 316.418 81.0076 316.622 81.4318H316.85V78.5455H320.906V96.2841C320.906 97.7765 320.55 99.0114 319.838 99.9886C319.126 100.966 318.153 101.697 316.918 102.182C315.683 102.667 314.281 102.909 312.713 102.909ZM312.747 92.5227C313.619 92.5227 314.361 92.3106 314.975 91.8864C315.588 91.4621 316.054 90.8523 316.372 90.0568C316.691 89.2614 316.85 88.3068 316.85 87.1932C316.85 86.0947 316.691 85.1326 316.372 84.3068C316.062 83.4811 315.6 82.8409 314.986 82.3864C314.38 81.9242 313.634 81.6932 312.747 81.6932C311.831 81.6932 311.066 81.9318 310.452 82.4091C309.838 82.8864 309.376 83.5417 309.066 84.375C308.755 85.2008 308.6 86.1402 308.6 87.1932C308.6 88.2614 308.755 89.197 309.066 90C309.384 90.7955 309.85 91.4167 310.463 91.8636C311.085 92.303 311.846 92.5227 312.747 92.5227ZM328.596 85.7727V96H324.482V72.7273H328.505V81.5114H328.71C329.119 80.5265 329.751 79.75 330.607 79.1818C331.471 78.6061 332.57 78.3182 333.903 78.3182C335.115 78.3182 336.172 78.572 337.073 79.0795C337.975 79.5871 338.672 80.3295 339.164 81.3068C339.664 82.2841 339.914 83.4773 339.914 84.8864V96H335.801V85.5227C335.801 84.3485 335.498 83.4356 334.891 82.7841C334.293 82.125 333.452 81.7955 332.369 81.7955C331.641 81.7955 330.99 81.9545 330.414 82.2727C329.846 82.5833 329.399 83.0341 329.073 83.625C328.755 84.2159 328.596 84.9318 328.596 85.7727ZM352.183 78.5455V81.7273H342.149V78.5455H352.183ZM344.626 74.3636H348.74V90.75C348.74 91.303 348.823 91.7273 348.99 92.0227C349.164 92.3106 349.392 92.5076 349.672 92.6136C349.952 92.7197 350.263 92.7727 350.604 92.7727C350.861 92.7727 351.096 92.7538 351.308 92.7159C351.528 92.678 351.695 92.6439 351.808 92.6136L352.501 95.8295C352.282 95.9053 351.967 95.9886 351.558 96.0795C351.157 96.1705 350.664 96.2235 350.081 96.2386C349.051 96.2689 348.123 96.1136 347.297 95.7727C346.471 95.4242 345.816 94.8864 345.331 94.1591C344.854 93.4318 344.619 92.5227 344.626 91.4318V74.3636ZM368.529 83.1591L364.779 83.5682C364.673 83.1894 364.487 82.8333 364.222 82.5C363.965 82.1667 363.616 81.8977 363.177 81.6932C362.737 81.4886 362.2 81.3864 361.563 81.3864C360.707 81.3864 359.987 81.572 359.404 81.9432C358.828 82.3144 358.544 82.7955 358.552 83.3864C358.544 83.8939 358.73 84.3068 359.109 84.625C359.495 84.9432 360.131 85.2045 361.018 85.4091L363.995 86.0455C365.647 86.4015 366.874 86.9659 367.677 87.7386C368.487 88.5114 368.897 89.5227 368.904 90.7727C368.897 91.8712 368.575 92.8409 367.938 93.6818C367.309 94.5152 366.434 95.1667 365.313 95.6364C364.192 96.1061 362.904 96.3409 361.45 96.3409C359.313 96.3409 357.593 95.8939 356.29 95C354.987 94.0985 354.211 92.8447 353.961 91.2386L357.972 90.8523C358.154 91.6402 358.54 92.2348 359.131 92.6364C359.722 93.0379 360.491 93.2386 361.438 93.2386C362.415 93.2386 363.2 93.0379 363.79 92.6364C364.389 92.2348 364.688 91.7386 364.688 91.1477C364.688 90.6477 364.495 90.2348 364.109 89.9091C363.73 89.5833 363.139 89.3333 362.336 89.1591L359.359 88.5341C357.684 88.1856 356.446 87.5985 355.643 86.7727C354.84 85.9394 354.442 84.8864 354.45 83.6136C354.442 82.5379 354.734 81.6061 355.325 80.8182C355.923 80.0227 356.753 79.4091 357.813 78.9773C358.881 78.5379 360.112 78.3182 361.506 78.3182C363.552 78.3182 365.162 78.7538 366.336 79.625C367.518 80.4962 368.249 81.6742 368.529 83.1591Z" fill="url(#paint0_linear_1181_22161)"/>
<path d="M112.918 189V171.545H119.139C120.497 171.545 121.622 171.793 122.514 172.287C123.406 172.781 124.074 173.457 124.517 174.315C124.96 175.168 125.182 176.128 125.182 177.196C125.182 178.27 124.957 179.236 124.509 180.094C124.065 180.946 123.395 181.622 122.497 182.122C121.605 182.616 120.483 182.864 119.131 182.864H114.852V180.631H118.892C119.75 180.631 120.446 180.483 120.98 180.188C121.514 179.886 121.906 179.477 122.156 178.96C122.406 178.443 122.531 177.855 122.531 177.196C122.531 176.537 122.406 175.952 122.156 175.44C121.906 174.929 121.511 174.528 120.972 174.239C120.438 173.949 119.733 173.804 118.858 173.804H115.551V189H112.918ZM127.585 189V175.909H130.048V177.989H130.184C130.423 177.284 130.843 176.73 131.445 176.327C132.053 175.918 132.741 175.713 133.508 175.713C133.667 175.713 133.855 175.719 134.07 175.73C134.292 175.741 134.465 175.756 134.59 175.773V178.21C134.488 178.182 134.306 178.151 134.045 178.116C133.783 178.077 133.522 178.057 133.261 178.057C132.658 178.057 132.122 178.185 131.65 178.44C131.184 178.69 130.815 179.04 130.542 179.489C130.269 179.932 130.133 180.437 130.133 181.006V189H127.585ZM141.361 189.264C140.134 189.264 139.063 188.983 138.148 188.42C137.233 187.858 136.523 187.071 136.017 186.06C135.512 185.048 135.259 183.866 135.259 182.514C135.259 181.156 135.512 179.969 136.017 178.952C136.523 177.935 137.233 177.145 138.148 176.582C139.063 176.02 140.134 175.739 141.361 175.739C142.588 175.739 143.659 176.02 144.574 176.582C145.489 177.145 146.199 177.935 146.705 178.952C147.21 179.969 147.463 181.156 147.463 182.514C147.463 183.866 147.21 185.048 146.705 186.06C146.199 187.071 145.489 187.858 144.574 188.42C143.659 188.983 142.588 189.264 141.361 189.264ZM141.37 187.125C142.165 187.125 142.824 186.915 143.347 186.494C143.87 186.074 144.256 185.514 144.506 184.815C144.762 184.116 144.889 183.347 144.889 182.506C144.889 181.67 144.762 180.903 144.506 180.205C144.256 179.5 143.87 178.935 143.347 178.509C142.824 178.082 142.165 177.869 141.37 177.869C140.568 177.869 139.904 178.082 139.375 178.509C138.853 178.935 138.463 179.5 138.208 180.205C137.958 180.903 137.833 181.67 137.833 182.506C137.833 183.347 137.958 184.116 138.208 184.815C138.463 185.514 138.853 186.074 139.375 186.494C139.904 186.915 140.568 187.125 141.37 187.125ZM149.828 175.909H152.376V189.852C152.376 190.727 152.217 191.466 151.899 192.068C151.586 192.67 151.12 193.128 150.501 193.44C149.887 193.753 149.129 193.909 148.225 193.909C148.135 193.909 148.049 193.909 147.97 193.909C147.885 193.909 147.797 193.906 147.706 193.901V191.71C147.785 191.71 147.856 191.71 147.919 191.71C147.975 191.71 148.041 191.71 148.115 191.71C148.717 191.71 149.152 191.548 149.419 191.224C149.691 190.906 149.828 190.443 149.828 189.835V175.909ZM151.089 173.889C150.646 173.889 150.265 173.741 149.947 173.446C149.635 173.145 149.478 172.787 149.478 172.372C149.478 171.952 149.635 171.594 149.947 171.298C150.265 170.997 150.646 170.847 151.089 170.847C151.532 170.847 151.91 170.997 152.223 171.298C152.541 171.594 152.7 171.952 152.7 172.372C152.7 172.787 152.541 173.145 152.223 173.446C151.91 173.741 151.532 173.889 151.089 173.889ZM160.966 189.264C159.677 189.264 158.566 188.989 157.634 188.438C156.708 187.881 155.992 187.099 155.486 186.094C154.986 185.082 154.736 183.898 154.736 182.54C154.736 181.199 154.986 180.017 155.486 178.994C155.992 177.972 156.696 177.173 157.6 176.599C158.509 176.026 159.571 175.739 160.787 175.739C161.526 175.739 162.242 175.861 162.935 176.105C163.628 176.349 164.25 176.733 164.802 177.256C165.353 177.778 165.787 178.457 166.106 179.293C166.424 180.122 166.583 181.131 166.583 182.318V183.222H156.177V181.312H164.086C164.086 180.642 163.949 180.048 163.677 179.531C163.404 179.009 163.02 178.597 162.526 178.295C162.037 177.994 161.464 177.844 160.804 177.844C160.089 177.844 159.464 178.02 158.929 178.372C158.401 178.719 157.992 179.173 157.702 179.736C157.418 180.293 157.276 180.898 157.276 181.551V183.043C157.276 183.918 157.429 184.662 157.736 185.276C158.049 185.889 158.483 186.358 159.04 186.682C159.597 187 160.248 187.159 160.992 187.159C161.475 187.159 161.915 187.091 162.313 186.955C162.711 186.812 163.054 186.602 163.344 186.324C163.634 186.045 163.856 185.702 164.009 185.293L166.421 185.727C166.228 186.437 165.881 187.06 165.381 187.594C164.887 188.122 164.265 188.534 163.515 188.83C162.77 189.119 161.921 189.264 160.966 189.264ZM174.444 189.264C173.177 189.264 172.087 188.977 171.172 188.403C170.263 187.824 169.564 187.026 169.075 186.009C168.587 184.991 168.342 183.827 168.342 182.514C168.342 181.185 168.592 180.011 169.092 178.994C169.592 177.972 170.297 177.173 171.206 176.599C172.115 176.026 173.186 175.739 174.419 175.739C175.413 175.739 176.3 175.923 177.078 176.293C177.856 176.656 178.484 177.168 178.962 177.827C179.444 178.486 179.731 179.256 179.822 180.136H177.342C177.206 179.523 176.893 178.994 176.405 178.551C175.922 178.108 175.274 177.886 174.462 177.886C173.751 177.886 173.129 178.074 172.595 178.449C172.067 178.818 171.655 179.347 171.359 180.034C171.064 180.716 170.916 181.523 170.916 182.455C170.916 183.409 171.061 184.233 171.351 184.926C171.64 185.619 172.05 186.156 172.578 186.537C173.112 186.918 173.74 187.108 174.462 187.108C174.944 187.108 175.382 187.02 175.774 186.844C176.172 186.662 176.504 186.403 176.771 186.068C177.044 185.733 177.234 185.33 177.342 184.858H179.822C179.731 185.705 179.456 186.46 178.996 187.125C178.535 187.79 177.919 188.312 177.146 188.693C176.379 189.074 175.479 189.264 174.444 189.264ZM188.178 175.909V177.955H181.028V175.909H188.178ZM182.945 172.773H185.494V185.156C185.494 185.651 185.567 186.023 185.715 186.273C185.863 186.517 186.053 186.685 186.286 186.776C186.525 186.861 186.783 186.903 187.062 186.903C187.266 186.903 187.445 186.889 187.599 186.861C187.752 186.832 187.871 186.81 187.957 186.793L188.417 188.898C188.269 188.955 188.059 189.011 187.786 189.068C187.513 189.131 187.173 189.165 186.763 189.17C186.093 189.182 185.468 189.062 184.888 188.812C184.309 188.562 183.84 188.176 183.482 187.653C183.124 187.131 182.945 186.474 182.945 185.685V172.773ZM195.732 173.812V171.545H209.241V173.812H203.795V189H201.17V173.812H195.732ZM215.285 189.264C213.995 189.264 212.885 188.989 211.953 188.438C211.027 187.881 210.311 187.099 209.805 186.094C209.305 185.082 209.055 183.898 209.055 182.54C209.055 181.199 209.305 180.017 209.805 178.994C210.311 177.972 211.015 177.173 211.919 176.599C212.828 176.026 213.89 175.739 215.106 175.739C215.845 175.739 216.561 175.861 217.254 176.105C217.947 176.349 218.569 176.733 219.12 177.256C219.671 177.778 220.106 178.457 220.424 179.293C220.743 180.122 220.902 181.131 220.902 182.318V183.222H210.495V181.312H218.404C218.404 180.642 218.268 180.048 217.995 179.531C217.723 179.009 217.339 178.597 216.845 178.295C216.356 177.994 215.782 177.844 215.123 177.844C214.407 177.844 213.782 178.02 213.248 178.372C212.72 178.719 212.311 179.173 212.021 179.736C211.737 180.293 211.595 180.898 211.595 181.551V183.043C211.595 183.918 211.748 184.662 212.055 185.276C212.368 185.889 212.802 186.358 213.359 186.682C213.916 187 214.566 187.159 215.311 187.159C215.794 187.159 216.234 187.091 216.632 186.955C217.029 186.812 217.373 186.602 217.663 186.324C217.953 186.045 218.174 185.702 218.328 185.293L220.74 185.727C220.546 186.437 220.2 187.06 219.7 187.594C219.206 188.122 218.583 188.534 217.833 188.83C217.089 189.119 216.24 189.264 215.285 189.264ZM227.059 189.29C226.229 189.29 225.479 189.136 224.809 188.83C224.138 188.517 223.607 188.065 223.215 187.474C222.829 186.884 222.635 186.159 222.635 185.301C222.635 184.562 222.777 183.955 223.062 183.477C223.346 183 223.729 182.622 224.212 182.344C224.695 182.065 225.235 181.855 225.831 181.713C226.428 181.571 227.036 181.463 227.655 181.389C228.439 181.298 229.076 181.224 229.564 181.168C230.053 181.105 230.408 181.006 230.63 180.869C230.851 180.733 230.962 180.511 230.962 180.205V180.145C230.962 179.401 230.752 178.824 230.331 178.415C229.917 178.006 229.297 177.801 228.473 177.801C227.615 177.801 226.939 177.991 226.445 178.372C225.956 178.747 225.618 179.165 225.431 179.625L223.036 179.08C223.32 178.284 223.735 177.642 224.28 177.153C224.831 176.659 225.465 176.301 226.181 176.08C226.897 175.852 227.65 175.739 228.439 175.739C228.962 175.739 229.516 175.801 230.101 175.926C230.692 176.045 231.243 176.267 231.755 176.591C232.272 176.915 232.695 177.378 233.025 177.98C233.354 178.577 233.519 179.352 233.519 180.307V189H231.03V187.21H230.928C230.763 187.54 230.516 187.864 230.187 188.182C229.857 188.5 229.434 188.764 228.917 188.974C228.4 189.185 227.78 189.29 227.059 189.29ZM227.613 187.244C228.317 187.244 228.919 187.105 229.419 186.827C229.925 186.548 230.309 186.185 230.57 185.736C230.837 185.281 230.971 184.795 230.971 184.278V182.591C230.88 182.682 230.704 182.767 230.442 182.847C230.187 182.92 229.894 182.986 229.564 183.043C229.235 183.094 228.914 183.142 228.601 183.188C228.289 183.227 228.027 183.261 227.817 183.29C227.323 183.352 226.871 183.457 226.462 183.605C226.059 183.753 225.735 183.966 225.49 184.244C225.252 184.517 225.133 184.881 225.133 185.335C225.133 185.966 225.365 186.443 225.831 186.767C226.297 187.085 226.891 187.244 227.613 187.244ZM236.433 189V175.909H238.879V178.04H239.041C239.314 177.318 239.76 176.756 240.379 176.352C240.998 175.943 241.74 175.739 242.604 175.739C243.479 175.739 244.211 175.943 244.802 176.352C245.399 176.761 245.839 177.324 246.123 178.04H246.26C246.572 177.341 247.069 176.784 247.751 176.369C248.433 175.949 249.246 175.739 250.189 175.739C251.376 175.739 252.345 176.111 253.095 176.855C253.851 177.599 254.229 178.722 254.229 180.222V189H251.68V180.46C251.68 179.574 251.439 178.932 250.956 178.534C250.473 178.136 249.896 177.938 249.226 177.938C248.396 177.938 247.751 178.193 247.291 178.705C246.831 179.21 246.601 179.861 246.601 180.656V189H244.061V180.298C244.061 179.588 243.839 179.017 243.396 178.585C242.953 178.153 242.376 177.938 241.666 177.938C241.183 177.938 240.737 178.065 240.328 178.321C239.925 178.571 239.598 178.92 239.348 179.369C239.104 179.818 238.981 180.338 238.981 180.929V189H236.433Z" fill="url(#paint1_linear_1181_22161)"/>
<path d="M711.918 171.545H715.114L720.67 185.114H720.875L726.432 171.545H729.628V189H727.122V176.369H726.96L721.812 188.974H719.733L714.585 176.361H714.423V189H711.918V171.545ZM734.383 193.909C734.002 193.909 733.656 193.878 733.343 193.815C733.031 193.759 732.798 193.696 732.644 193.628L733.258 191.54C733.724 191.665 734.139 191.719 734.502 191.702C734.866 191.685 735.187 191.548 735.465 191.293C735.749 191.037 735.999 190.619 736.215 190.04L736.531 189.17L731.741 175.909H734.468L737.783 186.068H737.92L741.235 175.909H743.971L738.576 190.747C738.326 191.429 738.008 192.006 737.622 192.477C737.235 192.955 736.775 193.313 736.241 193.551C735.707 193.79 735.087 193.909 734.383 193.909ZM751.962 189V171.545H758.184C759.536 171.545 760.658 171.778 761.55 172.244C762.448 172.71 763.118 173.355 763.561 174.179C764.005 174.997 764.226 175.943 764.226 177.017C764.226 178.085 764.002 179.026 763.553 179.838C763.11 180.645 762.439 181.273 761.542 181.722C760.649 182.17 759.527 182.395 758.175 182.395H753.462V180.128H757.936C758.789 180.128 759.482 180.006 760.016 179.761C760.556 179.517 760.951 179.162 761.201 178.696C761.451 178.23 761.576 177.67 761.576 177.017C761.576 176.358 761.448 175.787 761.192 175.304C760.942 174.821 760.547 174.452 760.007 174.196C759.473 173.935 758.772 173.804 757.902 173.804H754.596V189H751.962ZM760.578 181.125L764.891 189H761.891L757.664 181.125H760.578ZM772.096 189.264C770.869 189.264 769.798 188.983 768.883 188.42C767.968 187.858 767.258 187.071 766.753 186.06C766.247 185.048 765.994 183.866 765.994 182.514C765.994 181.156 766.247 179.969 766.753 178.952C767.258 177.935 767.968 177.145 768.883 176.582C769.798 176.02 770.869 175.739 772.096 175.739C773.324 175.739 774.395 176.02 775.309 176.582C776.224 177.145 776.934 177.935 777.44 178.952C777.946 179.969 778.199 181.156 778.199 182.514C778.199 183.866 777.946 185.048 777.44 186.06C776.934 187.071 776.224 187.858 775.309 188.42C774.395 188.983 773.324 189.264 772.096 189.264ZM772.105 187.125C772.9 187.125 773.559 186.915 774.082 186.494C774.605 186.074 774.991 185.514 775.241 184.815C775.497 184.116 775.625 183.347 775.625 182.506C775.625 181.67 775.497 180.903 775.241 180.205C774.991 179.5 774.605 178.935 774.082 178.509C773.559 178.082 772.9 177.869 772.105 177.869C771.304 177.869 770.639 178.082 770.111 178.509C769.588 178.935 769.199 179.5 768.943 180.205C768.693 180.903 768.568 181.67 768.568 182.506C768.568 183.347 768.693 184.116 768.943 184.815C769.199 185.514 769.588 186.074 770.111 186.494C770.639 186.915 771.304 187.125 772.105 187.125ZM783.111 171.545V189H780.563V171.545H783.111ZM791.702 189.264C790.412 189.264 789.301 188.989 788.369 188.438C787.443 187.881 786.727 187.099 786.222 186.094C785.722 185.082 785.472 183.898 785.472 182.54C785.472 181.199 785.722 180.017 786.222 178.994C786.727 177.972 787.432 177.173 788.335 176.599C789.244 176.026 790.307 175.739 791.523 175.739C792.261 175.739 792.977 175.861 793.67 176.105C794.364 176.349 794.986 176.733 795.537 177.256C796.088 177.778 796.523 178.457 796.841 179.293C797.159 180.122 797.318 181.131 797.318 182.318V183.222H786.912V181.312H794.821C794.821 180.642 794.685 180.048 794.412 179.531C794.139 179.009 793.756 178.597 793.261 178.295C792.773 177.994 792.199 177.844 791.54 177.844C790.824 177.844 790.199 178.02 789.665 178.372C789.136 178.719 788.727 179.173 788.437 179.736C788.153 180.293 788.011 180.898 788.011 181.551V183.043C788.011 183.918 788.165 184.662 788.472 185.276C788.784 185.889 789.219 186.358 789.776 186.682C790.332 187 790.983 187.159 791.727 187.159C792.21 187.159 792.651 187.091 793.048 186.955C793.446 186.812 793.79 186.602 794.08 186.324C794.369 186.045 794.591 185.702 794.744 185.293L797.156 185.727C796.963 186.437 796.616 187.06 796.116 187.594C795.622 188.122 795 188.534 794.25 188.83C793.506 189.119 792.656 189.264 791.702 189.264Z" fill="url(#paint2_linear_1181_22161)"/>
<path d="M138.585 216.909H140.477L144.926 227.776H145.08L149.528 216.909H151.42V230H149.938V220.054H149.81L145.719 230H144.287L140.196 220.054H140.068V230H138.585V216.909ZM155.006 233.682C154.75 233.682 154.522 233.661 154.322 233.618C154.122 233.58 153.983 233.541 153.907 233.503L154.29 232.173C154.657 232.267 154.98 232.301 155.262 232.276C155.543 232.25 155.792 232.124 156.009 231.898C156.231 231.677 156.434 231.317 156.617 230.818L156.898 230.051L153.267 220.182H154.904L157.614 228.006H157.716L160.426 220.182H162.063L157.895 231.432C157.708 231.939 157.475 232.359 157.198 232.691C156.921 233.028 156.6 233.277 156.233 233.439C155.871 233.601 155.462 233.682 155.006 233.682ZM170.648 222.381L169.293 222.764C169.208 222.538 169.082 222.319 168.916 222.106C168.754 221.888 168.533 221.71 168.251 221.569C167.97 221.428 167.61 221.358 167.171 221.358C166.57 221.358 166.07 221.496 165.669 221.773C165.273 222.046 165.075 222.393 165.075 222.815C165.075 223.19 165.211 223.487 165.484 223.704C165.756 223.921 166.183 224.102 166.762 224.247L168.219 224.605C169.097 224.818 169.751 225.144 170.182 225.583C170.612 226.018 170.827 226.578 170.827 227.264C170.827 227.827 170.665 228.33 170.342 228.773C170.022 229.216 169.575 229.565 168.999 229.821C168.424 230.077 167.755 230.205 166.992 230.205C165.991 230.205 165.162 229.987 164.506 229.553C163.849 229.118 163.434 228.483 163.259 227.648L164.691 227.29C164.827 227.818 165.085 228.214 165.464 228.479C165.848 228.743 166.349 228.875 166.967 228.875C167.67 228.875 168.228 228.726 168.641 228.428C169.059 228.125 169.268 227.763 169.268 227.341C169.268 227 169.148 226.714 168.91 226.484C168.671 226.25 168.305 226.075 167.81 225.96L166.174 225.577C165.275 225.364 164.614 225.033 164.192 224.586C163.775 224.134 163.566 223.57 163.566 222.892C163.566 222.338 163.722 221.848 164.033 221.422C164.348 220.996 164.776 220.661 165.317 220.418C165.863 220.175 166.481 220.054 167.171 220.054C168.143 220.054 168.906 220.267 169.46 220.693C170.018 221.119 170.414 221.682 170.648 222.381ZM176.855 230.205C175.909 230.205 175.093 229.996 174.407 229.578C173.725 229.156 173.198 228.568 172.828 227.814C172.461 227.055 172.278 226.173 172.278 225.168C172.278 224.162 172.461 223.276 172.828 222.509C173.198 221.737 173.714 221.136 174.375 220.706C175.039 220.271 175.815 220.054 176.701 220.054C177.213 220.054 177.718 220.139 178.216 220.31C178.715 220.48 179.169 220.757 179.578 221.141C179.987 221.52 180.313 222.023 180.556 222.649C180.799 223.276 180.92 224.047 180.92 224.963V225.602H173.352V224.298H179.386C179.386 223.744 179.275 223.25 179.054 222.815C178.836 222.381 178.525 222.038 178.12 221.786C177.72 221.535 177.247 221.409 176.701 221.409C176.1 221.409 175.581 221.558 175.142 221.857C174.707 222.151 174.372 222.534 174.138 223.007C173.904 223.48 173.786 223.987 173.786 224.528V225.398C173.786 226.139 173.914 226.768 174.17 227.283C174.43 227.795 174.79 228.185 175.25 228.453C175.71 228.717 176.245 228.849 176.855 228.849C177.251 228.849 177.609 228.794 177.929 228.683C178.252 228.568 178.532 228.398 178.766 228.172C179 227.942 179.181 227.656 179.309 227.315L180.767 227.724C180.613 228.219 180.355 228.653 179.993 229.028C179.631 229.399 179.183 229.689 178.651 229.898C178.118 230.102 177.519 230.205 176.855 230.205ZM184.363 216.909V230H182.855V216.909H184.363ZM191.138 220.182V221.46H185.846V220.182H191.138ZM187.431 230V218.827C187.431 218.264 187.563 217.795 187.827 217.42C188.092 217.045 188.435 216.764 188.856 216.577C189.278 216.389 189.724 216.295 190.192 216.295C190.563 216.295 190.866 216.325 191.1 216.385C191.334 216.445 191.509 216.5 191.624 216.551L191.19 217.855C191.113 217.83 191.006 217.798 190.87 217.759C190.738 217.721 190.563 217.702 190.346 217.702C189.847 217.702 189.487 217.827 189.266 218.079C189.048 218.33 188.94 218.699 188.94 219.185V230H187.431ZM142.957 248.909V262H141.372V250.571H141.295L138.099 252.693V251.082L141.372 248.909H142.957ZM158.454 252.182C158.377 251.534 158.066 251.031 157.521 250.673C156.975 250.315 156.306 250.136 155.514 250.136C154.934 250.136 154.427 250.23 153.992 250.418C153.562 250.605 153.225 250.863 152.982 251.191C152.744 251.519 152.624 251.892 152.624 252.31C152.624 252.659 152.708 252.96 152.874 253.211C153.044 253.458 153.262 253.665 153.526 253.831C153.79 253.993 154.067 254.127 154.357 254.234C154.646 254.336 154.913 254.419 155.156 254.483L156.485 254.841C156.826 254.93 157.205 255.054 157.623 255.212C158.045 255.369 158.448 255.585 158.831 255.857C159.219 256.126 159.539 256.471 159.79 256.893C160.041 257.315 160.167 257.832 160.167 258.446C160.167 259.153 159.982 259.793 159.611 260.364C159.244 260.935 158.708 261.388 158 261.725C157.297 262.062 156.443 262.23 155.437 262.23C154.499 262.23 153.688 262.079 153.002 261.776C152.32 261.474 151.783 261.052 151.391 260.511C151.003 259.969 150.784 259.341 150.732 258.625H152.369C152.411 259.119 152.578 259.528 152.867 259.852C153.161 260.172 153.532 260.411 153.98 260.568C154.431 260.722 154.917 260.798 155.437 260.798C156.042 260.798 156.585 260.7 157.067 260.504C157.548 260.304 157.93 260.027 158.211 259.673C158.492 259.315 158.633 258.898 158.633 258.42C158.633 257.986 158.512 257.632 158.269 257.359C158.026 257.087 157.706 256.865 157.31 256.695C156.914 256.524 156.485 256.375 156.025 256.247L154.414 255.787C153.392 255.493 152.582 255.073 151.985 254.528C151.389 253.982 151.09 253.268 151.09 252.386C151.09 251.653 151.289 251.014 151.685 250.469C152.085 249.919 152.622 249.493 153.296 249.19C153.973 248.884 154.73 248.73 155.565 248.73C156.409 248.73 157.159 248.881 157.815 249.184C158.471 249.482 158.991 249.891 159.374 250.411C159.762 250.931 159.967 251.521 159.988 252.182H158.454ZM166.325 262.205C165.379 262.205 164.563 261.996 163.877 261.578C163.195 261.156 162.669 260.568 162.298 259.814C161.932 259.055 161.749 258.173 161.749 257.168C161.749 256.162 161.932 255.276 162.298 254.509C162.669 253.737 163.185 253.136 163.845 252.706C164.51 252.271 165.286 252.054 166.172 252.054C166.683 252.054 167.188 252.139 167.687 252.31C168.185 252.48 168.639 252.757 169.048 253.141C169.457 253.52 169.783 254.023 170.026 254.649C170.269 255.276 170.391 256.047 170.391 256.963V257.602H162.823V256.298H168.857C168.857 255.744 168.746 255.25 168.524 254.815C168.307 254.381 167.996 254.038 167.591 253.786C167.19 253.535 166.717 253.409 166.172 253.409C165.571 253.409 165.051 253.558 164.612 253.857C164.178 254.151 163.843 254.534 163.609 255.007C163.374 255.48 163.257 255.987 163.257 256.528V257.398C163.257 258.139 163.385 258.768 163.641 259.283C163.901 259.795 164.261 260.185 164.721 260.453C165.181 260.717 165.716 260.849 166.325 260.849C166.722 260.849 167.08 260.794 167.399 260.683C167.723 260.568 168.002 260.398 168.237 260.172C168.471 259.942 168.652 259.656 168.78 259.315L170.237 259.724C170.084 260.219 169.826 260.653 169.464 261.028C169.102 261.399 168.654 261.689 168.122 261.898C167.589 262.102 166.99 262.205 166.325 262.205ZM173.834 256.094V262H172.325V252.182H173.783V253.716H173.911C174.141 253.217 174.49 252.817 174.959 252.514C175.428 252.207 176.033 252.054 176.774 252.054C177.439 252.054 178.021 252.19 178.519 252.463C179.018 252.732 179.406 253.141 179.683 253.69C179.96 254.236 180.098 254.926 180.098 255.761V262H178.59V255.864C178.59 255.092 178.389 254.491 177.989 254.061C177.588 253.626 177.039 253.409 176.34 253.409C175.858 253.409 175.428 253.513 175.048 253.722C174.673 253.931 174.377 254.236 174.16 254.636C173.943 255.037 173.834 255.523 173.834 256.094ZM182.495 262V252.182H184.003V262H182.495ZM183.262 250.545C182.968 250.545 182.714 250.445 182.501 250.245C182.292 250.045 182.188 249.804 182.188 249.523C182.188 249.241 182.292 249.001 182.501 248.8C182.714 248.6 182.968 248.5 183.262 248.5C183.556 248.5 183.807 248.6 184.016 248.8C184.229 249.001 184.336 249.241 184.336 249.523C184.336 249.804 184.229 250.045 184.016 250.245C183.807 250.445 183.556 250.545 183.262 250.545ZM190.395 262.205C189.509 262.205 188.731 261.994 188.062 261.572C187.397 261.15 186.877 260.56 186.502 259.801C186.131 259.043 185.946 258.156 185.946 257.142C185.946 256.119 186.131 255.227 186.502 254.464C186.877 253.701 187.397 253.109 188.062 252.687C188.731 252.265 189.509 252.054 190.395 252.054C191.281 252.054 192.057 252.265 192.722 252.687C193.391 253.109 193.91 253.701 194.281 254.464C194.656 255.227 194.844 256.119 194.844 257.142C194.844 258.156 194.656 259.043 194.281 259.801C193.91 260.56 193.391 261.15 192.722 261.572C192.057 261.994 191.281 262.205 190.395 262.205ZM190.395 260.849C191.068 260.849 191.622 260.677 192.057 260.332C192.491 259.987 192.813 259.533 193.022 258.97C193.231 258.408 193.335 257.798 193.335 257.142C193.335 256.486 193.231 255.874 193.022 255.308C192.813 254.741 192.491 254.283 192.057 253.933C191.622 253.584 191.068 253.409 190.395 253.409C189.722 253.409 189.168 253.584 188.733 253.933C188.298 254.283 187.977 254.741 187.768 255.308C187.559 255.874 187.455 256.486 187.455 257.142C187.455 257.798 187.559 258.408 187.768 258.97C187.977 259.533 188.298 259.987 188.733 260.332C189.168 260.677 189.722 260.849 190.395 260.849ZM196.786 262V252.182H198.244V253.665H198.346C198.525 253.179 198.849 252.785 199.318 252.482C199.786 252.18 200.315 252.028 200.903 252.028C201.014 252.028 201.152 252.031 201.318 252.035C201.485 252.039 201.61 252.045 201.696 252.054V253.588C201.644 253.575 201.527 253.556 201.344 253.531C201.165 253.501 200.975 253.486 200.775 253.486C200.298 253.486 199.872 253.586 199.497 253.786C199.126 253.982 198.832 254.255 198.615 254.604C198.402 254.95 198.295 255.344 198.295 255.787V262H196.786ZM211.534 262.205C210.715 262.205 209.993 261.998 209.367 261.585C208.74 261.167 208.25 260.579 207.897 259.82C207.543 259.058 207.366 258.156 207.366 257.116C207.366 256.085 207.543 255.19 207.897 254.432C208.25 253.673 208.742 253.087 209.373 252.674C210.004 252.261 210.732 252.054 211.559 252.054C212.198 252.054 212.703 252.161 213.074 252.374C213.449 252.582 213.735 252.821 213.931 253.089C214.131 253.354 214.286 253.571 214.397 253.741H214.525V248.909H216.034V262H214.576V260.491H214.397C214.286 260.67 214.129 260.896 213.924 261.169C213.72 261.437 213.428 261.678 213.049 261.891C212.669 262.1 212.164 262.205 211.534 262.205ZM211.738 260.849C212.343 260.849 212.855 260.692 213.272 260.376C213.69 260.057 214.007 259.616 214.225 259.053C214.442 258.487 214.551 257.832 214.551 257.091C214.551 256.358 214.444 255.717 214.231 255.167C214.018 254.613 213.703 254.183 213.285 253.876C212.867 253.565 212.352 253.409 211.738 253.409C211.099 253.409 210.566 253.573 210.14 253.901C209.718 254.225 209.401 254.666 209.188 255.224C208.979 255.778 208.875 256.401 208.875 257.091C208.875 257.79 208.981 258.425 209.194 258.996C209.411 259.562 209.731 260.014 210.153 260.351C210.579 260.683 211.107 260.849 211.738 260.849ZM222.762 262.205C221.816 262.205 221 261.996 220.314 261.578C219.632 261.156 219.106 260.568 218.735 259.814C218.369 259.055 218.186 258.173 218.186 257.168C218.186 256.162 218.369 255.276 218.735 254.509C219.106 253.737 219.622 253.136 220.282 252.706C220.947 252.271 221.723 252.054 222.609 252.054C223.12 252.054 223.625 252.139 224.124 252.31C224.622 252.48 225.076 252.757 225.485 253.141C225.894 253.52 226.22 254.023 226.463 254.649C226.706 255.276 226.828 256.047 226.828 256.963V257.602H219.26V256.298H225.294C225.294 255.744 225.183 255.25 224.961 254.815C224.744 254.381 224.433 254.038 224.028 253.786C223.627 253.535 223.154 253.409 222.609 253.409C222.008 253.409 221.488 253.558 221.049 253.857C220.615 254.151 220.28 254.534 220.046 255.007C219.811 255.48 219.694 255.987 219.694 256.528V257.398C219.694 258.139 219.822 258.768 220.078 259.283C220.338 259.795 220.698 260.185 221.158 260.453C221.618 260.717 222.153 260.849 222.762 260.849C223.159 260.849 223.517 260.794 223.836 260.683C224.16 260.568 224.439 260.398 224.674 260.172C224.908 259.942 225.089 259.656 225.217 259.315L226.674 259.724C226.521 260.219 226.263 260.653 225.901 261.028C225.539 261.399 225.091 261.689 224.559 261.898C224.026 262.102 223.427 262.205 222.762 262.205ZM235.717 254.381L234.362 254.764C234.277 254.538 234.151 254.319 233.985 254.106C233.823 253.888 233.601 253.71 233.32 253.569C233.039 253.428 232.679 253.358 232.24 253.358C231.639 253.358 231.138 253.496 230.738 253.773C230.341 254.046 230.143 254.393 230.143 254.815C230.143 255.19 230.28 255.487 230.552 255.704C230.825 255.921 231.251 256.102 231.831 256.247L233.288 256.605C234.166 256.818 234.82 257.144 235.25 257.583C235.681 258.018 235.896 258.578 235.896 259.264C235.896 259.827 235.734 260.33 235.41 260.773C235.091 261.216 234.643 261.565 234.068 261.821C233.493 262.077 232.824 262.205 232.061 262.205C231.059 262.205 230.231 261.987 229.574 261.553C228.918 261.118 228.503 260.483 228.328 259.648L229.76 259.29C229.896 259.818 230.154 260.214 230.533 260.479C230.917 260.743 231.417 260.875 232.035 260.875C232.738 260.875 233.297 260.726 233.71 260.428C234.128 260.125 234.336 259.763 234.336 259.341C234.336 259 234.217 258.714 233.978 258.484C233.74 258.25 233.373 258.075 232.879 257.96L231.243 257.577C230.343 257.364 229.683 257.033 229.261 256.586C228.843 256.134 228.635 255.57 228.635 254.892C228.635 254.338 228.79 253.848 229.101 253.422C229.417 252.996 229.845 252.661 230.386 252.418C230.932 252.175 231.549 252.054 232.24 252.054C233.211 252.054 233.974 252.267 234.528 252.693C235.086 253.119 235.483 253.682 235.717 254.381ZM237.807 262V252.182H239.315V262H237.807ZM238.574 250.545C238.28 250.545 238.026 250.445 237.813 250.245C237.604 250.045 237.5 249.804 237.5 249.523C237.5 249.241 237.604 249.001 237.813 248.8C238.026 248.6 238.28 248.5 238.574 248.5C238.868 248.5 239.119 248.6 239.328 248.8C239.541 249.001 239.648 249.241 239.648 249.523C239.648 249.804 239.541 250.045 239.328 250.245C239.119 250.445 238.868 250.545 238.574 250.545ZM245.681 265.886C244.953 265.886 244.326 265.793 243.802 265.605C243.278 265.422 242.841 265.179 242.492 264.876C242.147 264.578 241.872 264.259 241.667 263.918L242.869 263.074C243.005 263.253 243.178 263.457 243.387 263.688C243.595 263.922 243.881 264.124 244.243 264.295C244.61 264.469 245.089 264.557 245.681 264.557C246.474 264.557 247.128 264.365 247.644 263.982C248.159 263.598 248.417 262.997 248.417 262.179V260.185H248.289C248.178 260.364 248.021 260.585 247.816 260.849C247.616 261.109 247.326 261.342 246.947 261.546C246.572 261.746 246.065 261.847 245.426 261.847C244.633 261.847 243.921 261.659 243.291 261.284C242.664 260.909 242.168 260.364 241.801 259.648C241.439 258.932 241.258 258.062 241.258 257.04C241.258 256.034 241.435 255.158 241.789 254.413C242.142 253.663 242.634 253.083 243.265 252.674C243.896 252.261 244.625 252.054 245.451 252.054C246.09 252.054 246.598 252.161 246.973 252.374C247.352 252.582 247.642 252.821 247.842 253.089C248.046 253.354 248.204 253.571 248.315 253.741H248.468V252.182H249.926V262.281C249.926 263.125 249.734 263.811 249.35 264.339C248.971 264.872 248.46 265.262 247.816 265.509C247.177 265.761 246.465 265.886 245.681 265.886ZM245.63 260.491C246.235 260.491 246.747 260.353 247.164 260.076C247.582 259.799 247.899 259.401 248.117 258.881C248.334 258.361 248.443 257.739 248.443 257.014C248.443 256.307 248.336 255.683 248.123 255.141C247.91 254.6 247.595 254.176 247.177 253.869C246.759 253.562 246.244 253.409 245.63 253.409C244.991 253.409 244.458 253.571 244.032 253.895C243.61 254.219 243.293 254.653 243.08 255.199C242.871 255.744 242.767 256.349 242.767 257.014C242.767 257.696 242.873 258.299 243.086 258.823C243.303 259.343 243.623 259.752 244.045 260.05C244.471 260.344 245 260.491 245.63 260.491ZM253.836 256.094V262H252.327V252.182H253.784V253.716H253.912C254.142 253.217 254.492 252.817 254.961 252.514C255.429 252.207 256.034 252.054 256.776 252.054C257.441 252.054 258.022 252.19 258.521 252.463C259.019 252.732 259.407 253.141 259.684 253.69C259.961 254.236 260.1 254.926 260.1 255.761V262H258.591V255.864C258.591 255.092 258.391 254.491 257.99 254.061C257.59 253.626 257.04 253.409 256.341 253.409C255.86 253.409 255.429 253.513 255.05 253.722C254.675 253.931 254.379 254.236 254.162 254.636C253.944 255.037 253.836 255.523 253.836 256.094ZM266.613 262.205C265.667 262.205 264.851 261.996 264.165 261.578C263.483 261.156 262.957 260.568 262.586 259.814C262.219 259.055 262.036 258.173 262.036 257.168C262.036 256.162 262.219 255.276 262.586 254.509C262.957 253.737 263.472 253.136 264.133 252.706C264.797 252.271 265.573 252.054 266.459 252.054C266.971 252.054 267.476 252.139 267.974 252.31C268.473 252.48 268.927 252.757 269.336 253.141C269.745 253.52 270.071 254.023 270.314 254.649C270.557 255.276 270.678 256.047 270.678 256.963V257.602H263.11V256.298H269.144C269.144 255.744 269.033 255.25 268.812 254.815C268.594 254.381 268.283 254.038 267.878 253.786C267.478 253.535 267.005 253.409 266.459 253.409C265.859 253.409 265.339 253.558 264.9 253.857C264.465 254.151 264.131 254.534 263.896 255.007C263.662 255.48 263.545 255.987 263.545 256.528V257.398C263.545 258.139 263.672 258.768 263.928 259.283C264.188 259.795 264.548 260.185 265.008 260.453C265.469 260.717 266.003 260.849 266.613 260.849C267.009 260.849 267.367 260.794 267.687 260.683C268.011 260.568 268.29 260.398 268.524 260.172C268.758 259.942 268.939 259.656 269.067 259.315L270.525 259.724C270.371 260.219 270.113 260.653 269.751 261.028C269.389 261.399 268.942 261.689 268.409 261.898C267.876 262.102 267.278 262.205 266.613 262.205ZM272.613 262V252.182H274.07V253.665H274.173C274.352 253.179 274.675 252.785 275.144 252.482C275.613 252.18 276.141 252.028 276.729 252.028C276.84 252.028 276.979 252.031 277.145 252.035C277.311 252.039 277.437 252.045 277.522 252.054V253.588C277.471 253.575 277.354 253.556 277.17 253.531C276.991 253.501 276.802 253.486 276.602 253.486C276.124 253.486 275.698 253.586 275.323 253.786C274.952 253.982 274.658 254.255 274.441 254.604C274.228 254.95 274.121 255.344 274.121 255.787V262H272.613Z" fill="white" fill-opacity="0.8"/>
<path d="M746.176 216.909H747.761V225.577C747.761 226.472 747.55 227.271 747.129 227.974C746.711 228.673 746.121 229.224 745.358 229.629C744.595 230.03 743.7 230.23 742.673 230.23C741.646 230.23 740.751 230.03 739.989 229.629C739.226 229.224 738.634 228.673 738.212 227.974C737.794 227.271 737.585 226.472 737.585 225.577V216.909H739.17V225.449C739.17 226.088 739.311 226.657 739.592 227.156C739.874 227.65 740.274 228.04 740.794 228.325C741.318 228.607 741.945 228.747 742.673 228.747C743.402 228.747 744.028 228.607 744.553 228.325C745.077 228.04 745.477 227.65 745.754 227.156C746.036 226.657 746.176 226.088 746.176 225.449V216.909ZM751.334 216.909L754.709 222.355H754.811L758.186 216.909H760.053L755.936 223.455L760.053 230H758.186L754.811 224.656H754.709L751.334 230H749.468L753.686 223.455L749.468 216.909H751.334ZM766.458 230V216.909H770.882C771.904 216.909 772.744 217.084 773.4 217.433C774.056 217.778 774.542 218.254 774.858 218.859C775.173 219.464 775.331 220.152 775.331 220.923C775.331 221.695 775.173 222.379 774.858 222.975C774.542 223.572 774.058 224.04 773.407 224.381C772.755 224.718 771.921 224.886 770.907 224.886H767.328V223.455H770.856C771.555 223.455 772.117 223.352 772.544 223.148C772.974 222.943 773.285 222.653 773.477 222.278C773.673 221.899 773.771 221.447 773.771 220.923C773.771 220.399 773.673 219.941 773.477 219.549C773.281 219.157 772.968 218.854 772.537 218.641C772.107 218.424 771.538 218.315 770.831 218.315H768.044V230H766.458ZM772.62 224.119L775.842 230H774.001L770.831 224.119H772.62ZM781.418 230.205C780.472 230.205 779.656 229.996 778.97 229.578C778.289 229.156 777.762 228.568 777.392 227.814C777.025 227.055 776.842 226.173 776.842 225.168C776.842 224.162 777.025 223.276 777.392 222.509C777.762 221.737 778.278 221.136 778.938 220.706C779.603 220.271 780.379 220.054 781.265 220.054C781.776 220.054 782.281 220.139 782.78 220.31C783.279 220.48 783.732 220.757 784.142 221.141C784.551 221.52 784.877 222.023 785.119 222.649C785.362 223.276 785.484 224.047 785.484 224.963V225.602H777.916V224.298H783.95C783.95 223.744 783.839 223.25 783.617 222.815C783.4 222.381 783.089 222.038 782.684 221.786C782.284 221.535 781.811 221.409 781.265 221.409C780.664 221.409 780.144 221.558 779.705 221.857C779.271 222.151 778.936 222.534 778.702 223.007C778.467 223.48 778.35 223.987 778.35 224.528V225.398C778.35 226.139 778.478 226.768 778.734 227.283C778.994 227.795 779.354 228.185 779.814 228.453C780.274 228.717 780.809 228.849 781.418 228.849C781.815 228.849 782.173 228.794 782.492 228.683C782.816 228.568 783.095 228.398 783.33 228.172C783.564 227.942 783.745 227.656 783.873 227.315L785.33 227.724C785.177 228.219 784.919 228.653 784.557 229.028C784.195 229.399 783.747 229.689 783.215 229.898C782.682 230.102 782.083 230.205 781.418 230.205ZM794.373 222.381L793.018 222.764C792.933 222.538 792.807 222.319 792.641 222.106C792.479 221.888 792.257 221.71 791.976 221.569C791.695 221.428 791.335 221.358 790.896 221.358C790.295 221.358 789.794 221.496 789.394 221.773C788.997 222.046 788.799 222.393 788.799 222.815C788.799 223.19 788.936 223.487 789.208 223.704C789.481 223.921 789.907 224.102 790.487 224.247L791.944 224.605C792.822 224.818 793.476 225.144 793.906 225.583C794.337 226.018 794.552 226.578 794.552 227.264C794.552 227.827 794.39 228.33 794.066 228.773C793.747 229.216 793.299 229.565 792.724 229.821C792.149 230.077 791.48 230.205 790.717 230.205C789.715 230.205 788.887 229.987 788.23 229.553C787.574 229.118 787.159 228.483 786.984 227.648L788.416 227.29C788.552 227.818 788.81 228.214 789.189 228.479C789.573 228.743 790.073 228.875 790.691 228.875C791.394 228.875 791.953 228.726 792.366 228.428C792.784 228.125 792.992 227.763 792.992 227.341C792.992 227 792.873 226.714 792.634 226.484C792.396 226.25 792.029 226.075 791.535 225.96L789.899 225.577C789 225.364 788.339 225.033 787.917 224.586C787.5 224.134 787.291 223.57 787.291 222.892C787.291 222.338 787.446 221.848 787.757 221.422C788.073 220.996 788.501 220.661 789.042 220.418C789.588 220.175 790.206 220.054 790.896 220.054C791.867 220.054 792.63 220.267 793.184 220.693C793.742 221.119 794.139 221.682 794.373 222.381ZM800.579 230.205C799.633 230.205 798.817 229.996 798.131 229.578C797.449 229.156 796.923 228.568 796.552 227.814C796.186 227.055 796.003 226.173 796.003 225.168C796.003 224.162 796.186 223.276 796.552 222.509C796.923 221.737 797.439 221.136 798.099 220.706C798.764 220.271 799.54 220.054 800.426 220.054C800.937 220.054 801.442 220.139 801.941 220.31C802.439 220.48 802.893 220.757 803.302 221.141C803.711 221.52 804.037 222.023 804.28 222.649C804.523 223.276 804.645 224.047 804.645 224.963V225.602H797.077V224.298H803.111C803.111 223.744 803 223.25 802.778 222.815C802.561 222.381 802.25 222.038 801.845 221.786C801.444 221.535 800.971 221.409 800.426 221.409C799.825 221.409 799.305 221.558 798.866 221.857C798.432 222.151 798.097 222.534 797.863 223.007C797.628 223.48 797.511 223.987 797.511 224.528V225.398C797.511 226.139 797.639 226.768 797.895 227.283C798.155 227.795 798.515 228.185 798.975 228.453C799.435 228.717 799.97 228.849 800.579 228.849C800.976 228.849 801.334 228.794 801.653 228.683C801.977 228.568 802.256 228.398 802.491 228.172C802.725 227.942 802.906 227.656 803.034 227.315L804.491 227.724C804.338 228.219 804.08 228.653 803.718 229.028C803.356 229.399 802.908 229.689 802.376 229.898C801.843 230.102 801.244 230.205 800.579 230.205ZM809.469 230.23C808.846 230.23 808.282 230.113 807.775 229.879C807.268 229.64 806.865 229.297 806.567 228.849C806.268 228.398 806.119 227.852 806.119 227.213C806.119 226.651 806.23 226.195 806.452 225.845C806.673 225.491 806.969 225.214 807.34 225.014C807.711 224.814 808.12 224.665 808.567 224.567C809.019 224.464 809.473 224.384 809.929 224.324C810.525 224.247 811.009 224.19 811.38 224.151C811.755 224.109 812.028 224.038 812.198 223.94C812.373 223.842 812.46 223.672 812.46 223.429V223.378C812.46 222.747 812.288 222.257 811.942 221.908C811.601 221.558 811.084 221.384 810.389 221.384C809.669 221.384 809.104 221.541 808.695 221.857C808.286 222.172 807.998 222.509 807.832 222.866L806.4 222.355C806.656 221.759 806.997 221.294 807.423 220.962C807.854 220.625 808.322 220.391 808.829 220.259C809.341 220.122 809.844 220.054 810.338 220.054C810.653 220.054 811.016 220.092 811.425 220.169C811.838 220.241 812.236 220.393 812.62 220.623C813.008 220.853 813.329 221.2 813.585 221.665C813.841 222.129 813.969 222.751 813.969 223.531V230H812.46V228.67H812.383C812.281 228.884 812.111 229.112 811.872 229.354C811.633 229.597 811.316 229.804 810.92 229.974C810.523 230.145 810.04 230.23 809.469 230.23ZM809.699 228.875C810.295 228.875 810.798 228.758 811.207 228.523C811.621 228.289 811.932 227.987 812.141 227.616C812.354 227.245 812.46 226.855 812.46 226.446V225.065C812.396 225.142 812.256 225.212 812.038 225.276C811.825 225.336 811.578 225.389 811.297 225.436C811.02 225.479 810.749 225.517 810.485 225.551C810.225 225.581 810.014 225.607 809.852 225.628C809.46 225.679 809.094 225.762 808.753 225.877C808.416 225.988 808.143 226.156 807.935 226.382C807.73 226.604 807.628 226.906 807.628 227.29C807.628 227.814 807.822 228.21 808.209 228.479C808.601 228.743 809.098 228.875 809.699 228.875ZM816.362 230V220.182H817.819V221.665H817.922C818.101 221.179 818.425 220.785 818.893 220.482C819.362 220.18 819.89 220.028 820.478 220.028C820.589 220.028 820.728 220.031 820.894 220.035C821.06 220.039 821.186 220.045 821.271 220.054V221.588C821.22 221.575 821.103 221.556 820.92 221.531C820.741 221.501 820.551 221.486 820.351 221.486C819.873 221.486 819.447 221.586 819.072 221.786C818.702 221.982 818.407 222.255 818.19 222.604C817.977 222.95 817.871 223.344 817.871 223.787V230H816.362ZM826.389 230.205C825.469 230.205 824.676 229.987 824.011 229.553C823.346 229.118 822.835 228.519 822.477 227.756C822.119 226.994 821.94 226.122 821.94 225.142C821.94 224.145 822.123 223.265 822.49 222.502C822.861 221.735 823.376 221.136 824.037 220.706C824.702 220.271 825.477 220.054 826.364 220.054C827.054 220.054 827.676 220.182 828.23 220.438C828.784 220.693 829.238 221.051 829.592 221.511C829.945 221.972 830.165 222.509 830.25 223.122H828.741C828.626 222.675 828.371 222.278 827.974 221.933C827.582 221.584 827.054 221.409 826.389 221.409C825.801 221.409 825.285 221.562 824.842 221.869C824.403 222.172 824.06 222.6 823.813 223.154C823.57 223.704 823.449 224.349 823.449 225.091C823.449 225.849 823.568 226.51 823.807 227.072C824.05 227.635 824.391 228.072 824.829 228.383C825.273 228.694 825.792 228.849 826.389 228.849C826.781 228.849 827.137 228.781 827.457 228.645C827.776 228.509 828.047 228.312 828.268 228.057C828.49 227.801 828.648 227.494 828.741 227.136H830.25C830.165 227.716 829.954 228.238 829.617 228.702C829.285 229.163 828.844 229.529 828.294 229.802C827.748 230.07 827.114 230.205 826.389 230.205ZM833.604 224.094V230H832.095V216.909H833.604V221.716H833.732C833.962 221.209 834.307 220.806 834.767 220.508C835.232 220.205 835.849 220.054 836.621 220.054C837.29 220.054 837.876 220.188 838.379 220.457C838.881 220.721 839.271 221.128 839.548 221.678C839.83 222.223 839.97 222.918 839.97 223.761V230H838.462V223.864C838.462 223.084 838.259 222.481 837.854 222.055C837.454 221.624 836.898 221.409 836.186 221.409C835.692 221.409 835.249 221.513 834.857 221.722C834.469 221.931 834.162 222.236 833.936 222.636C833.714 223.037 833.604 223.523 833.604 224.094ZM846.486 230.205C845.54 230.205 844.724 229.996 844.038 229.578C843.356 229.156 842.83 228.568 842.459 227.814C842.093 227.055 841.91 226.173 841.91 225.168C841.91 224.162 842.093 223.276 842.459 222.509C842.83 221.737 843.346 221.136 844.006 220.706C844.671 220.271 845.447 220.054 846.333 220.054C846.844 220.054 847.349 220.139 847.848 220.31C848.346 220.48 848.8 220.757 849.209 221.141C849.618 221.52 849.944 222.023 850.187 222.649C850.43 223.276 850.552 224.047 850.552 224.963V225.602H842.984V224.298H849.018C849.018 223.744 848.907 223.25 848.685 222.815C848.468 222.381 848.157 222.038 847.752 221.786C847.351 221.535 846.878 221.409 846.333 221.409C845.732 221.409 845.212 221.558 844.773 221.857C844.339 222.151 844.004 222.534 843.77 223.007C843.535 223.48 843.418 223.987 843.418 224.528V225.398C843.418 226.139 843.546 226.768 843.802 227.283C844.062 227.795 844.422 228.185 844.882 228.453C845.342 228.717 845.877 228.849 846.486 228.849C846.883 228.849 847.241 228.794 847.56 228.683C847.884 228.568 848.163 228.398 848.398 228.172C848.632 227.942 848.813 227.656 848.941 227.315L850.398 227.724C850.245 228.219 849.987 228.653 849.625 229.028C849.263 229.399 848.815 229.689 848.283 229.898C847.75 230.102 847.151 230.205 846.486 230.205ZM852.486 230V220.182H853.944V221.665H854.046C854.225 221.179 854.549 220.785 855.018 220.482C855.486 220.18 856.015 220.028 856.603 220.028C856.714 220.028 856.852 220.031 857.018 220.035C857.185 220.039 857.31 220.045 857.396 220.054V221.588C857.344 221.575 857.227 221.556 857.044 221.531C856.865 221.501 856.675 221.486 856.475 221.486C855.998 221.486 855.572 221.586 855.197 221.786C854.826 221.982 854.532 222.255 854.315 222.604C854.102 222.95 853.995 223.344 853.995 223.787V230H852.486ZM746.176 248.909H747.761V257.577C747.761 258.472 747.55 259.271 747.129 259.974C746.711 260.673 746.121 261.224 745.358 261.629C744.595 262.03 743.7 262.23 742.673 262.23C741.646 262.23 740.751 262.03 739.989 261.629C739.226 261.224 738.634 260.673 738.212 259.974C737.794 259.271 737.585 258.472 737.585 257.577V248.909H739.17V257.449C739.17 258.088 739.311 258.657 739.592 259.156C739.874 259.65 740.274 260.04 740.794 260.325C741.318 260.607 741.945 260.747 742.673 260.747C743.402 260.747 744.028 260.607 744.553 260.325C745.077 260.04 745.477 259.65 745.754 259.156C746.036 258.657 746.176 258.088 746.176 257.449V248.909ZM752.152 248.909V262H750.567V248.909H752.152ZM759.394 248.295L755.175 263.969H753.795L758.013 248.295H759.394ZM769.618 248.909H771.203V257.577C771.203 258.472 770.992 259.271 770.57 259.974C770.152 260.673 769.562 261.224 768.799 261.629C768.037 262.03 767.142 262.23 766.115 262.23C765.088 262.23 764.193 262.03 763.43 261.629C762.667 261.224 762.075 260.673 761.653 259.974C761.236 259.271 761.027 258.472 761.027 257.577V248.909H762.612V257.449C762.612 258.088 762.753 258.657 763.034 259.156C763.315 259.65 763.716 260.04 764.236 260.325C764.76 260.607 765.386 260.747 766.115 260.747C766.843 260.747 767.47 260.607 767.994 260.325C768.518 260.04 768.919 259.65 769.196 259.156C769.477 258.657 769.618 258.088 769.618 257.449V248.909ZM774.776 248.909L778.151 254.355H778.253L781.628 248.909H783.494L779.378 255.455L783.494 262H781.628L778.253 256.656H778.151L774.776 262H772.909L777.128 255.455L772.909 248.909H774.776ZM793.94 262H789.9V248.909H794.119C795.388 248.909 796.475 249.171 797.379 249.695C798.282 250.215 798.974 250.963 799.456 251.939C799.937 252.911 800.178 254.074 800.178 255.429C800.178 256.793 799.935 257.967 799.45 258.951C798.964 259.931 798.256 260.685 797.327 261.214C796.398 261.738 795.269 262 793.94 262ZM791.485 260.594H793.837C794.92 260.594 795.817 260.385 796.528 259.967C797.24 259.55 797.771 258.955 798.12 258.184C798.469 257.413 798.644 256.494 798.644 255.429C798.644 254.372 798.472 253.462 798.126 252.7C797.781 251.933 797.266 251.344 796.58 250.935C795.893 250.522 795.039 250.315 794.016 250.315H791.485V260.594ZM806.389 262.205C805.443 262.205 804.627 261.996 803.941 261.578C803.259 261.156 802.733 260.568 802.362 259.814C801.996 259.055 801.813 258.173 801.813 257.168C801.813 256.162 801.996 255.276 802.362 254.509C802.733 253.737 803.249 253.136 803.909 252.706C804.574 252.271 805.349 252.054 806.236 252.054C806.747 252.054 807.252 252.139 807.751 252.31C808.249 252.48 808.703 252.757 809.112 253.141C809.521 253.52 809.847 254.023 810.09 254.649C810.333 255.276 810.455 256.047 810.455 256.963V257.602H802.886V256.298H808.921C808.921 255.744 808.81 255.25 808.588 254.815C808.371 254.381 808.06 254.038 807.655 253.786C807.254 253.535 806.781 253.409 806.236 253.409C805.635 253.409 805.115 253.558 804.676 253.857C804.242 254.151 803.907 254.534 803.673 255.007C803.438 255.48 803.321 255.987 803.321 256.528V257.398C803.321 258.139 803.449 258.768 803.705 259.283C803.965 259.795 804.325 260.185 804.785 260.453C805.245 260.717 805.78 260.849 806.389 260.849C806.786 260.849 807.144 260.794 807.463 260.683C807.787 260.568 808.066 260.398 808.3 260.172C808.535 259.942 808.716 259.656 808.844 259.315L810.301 259.724C810.148 260.219 809.89 260.653 809.528 261.028C809.166 261.399 808.718 261.689 808.185 261.898C807.653 262.102 807.054 262.205 806.389 262.205ZM819.344 254.381L817.989 254.764C817.904 254.538 817.778 254.319 817.612 254.106C817.45 253.888 817.228 253.71 816.947 253.569C816.666 253.428 816.306 253.358 815.867 253.358C815.266 253.358 814.765 253.496 814.364 253.773C813.968 254.046 813.77 254.393 813.77 254.815C813.77 255.19 813.906 255.487 814.179 255.704C814.452 255.921 814.878 256.102 815.458 256.247L816.915 256.605C817.793 256.818 818.447 257.144 818.877 257.583C819.308 258.018 819.523 258.578 819.523 259.264C819.523 259.827 819.361 260.33 819.037 260.773C818.717 261.216 818.27 261.565 817.695 261.821C817.119 262.077 816.45 262.205 815.688 262.205C814.686 262.205 813.857 261.987 813.201 261.553C812.545 261.118 812.129 260.483 811.955 259.648L813.387 259.29C813.523 259.818 813.781 260.214 814.16 260.479C814.543 260.743 815.044 260.875 815.662 260.875C816.365 260.875 816.923 260.726 817.337 260.428C817.754 260.125 817.963 259.763 817.963 259.341C817.963 259 817.844 258.714 817.605 258.484C817.367 258.25 817 258.075 816.506 257.96L814.869 257.577C813.97 257.364 813.31 257.033 812.888 256.586C812.47 256.134 812.262 255.57 812.262 254.892C812.262 254.338 812.417 253.848 812.728 253.422C813.043 252.996 813.472 252.661 814.013 252.418C814.558 252.175 815.176 252.054 815.867 252.054C816.838 252.054 817.601 252.267 818.155 252.693C818.713 253.119 819.11 253.682 819.344 254.381ZM821.434 262V252.182H822.942V262H821.434ZM822.201 250.545C821.907 250.545 821.653 250.445 821.44 250.245C821.231 250.045 821.127 249.804 821.127 249.523C821.127 249.241 821.231 249.001 821.44 248.8C821.653 248.6 821.907 248.5 822.201 248.5C822.495 248.5 822.746 248.6 822.955 248.8C823.168 249.001 823.275 249.241 823.275 249.523C823.275 249.804 823.168 250.045 822.955 250.245C822.746 250.445 822.495 250.545 822.201 250.545ZM829.308 265.886C828.58 265.886 827.953 265.793 827.429 265.605C826.905 265.422 826.468 265.179 826.119 264.876C825.773 264.578 825.499 264.259 825.294 263.918L826.496 263.074C826.632 263.253 826.805 263.457 827.013 263.688C827.222 263.922 827.508 264.124 827.87 264.295C828.236 264.469 828.716 264.557 829.308 264.557C830.101 264.557 830.755 264.365 831.271 263.982C831.786 263.598 832.044 262.997 832.044 262.179V260.185H831.916C831.805 260.364 831.648 260.585 831.443 260.849C831.243 261.109 830.953 261.342 830.574 261.546C830.199 261.746 829.692 261.847 829.053 261.847C828.26 261.847 827.548 261.659 826.918 261.284C826.291 260.909 825.795 260.364 825.428 259.648C825.066 258.932 824.885 258.062 824.885 257.04C824.885 256.034 825.062 255.158 825.415 254.413C825.769 253.663 826.261 253.083 826.892 252.674C827.523 252.261 828.251 252.054 829.078 252.054C829.717 252.054 830.224 252.161 830.599 252.374C830.979 252.582 831.268 252.821 831.469 253.089C831.673 253.354 831.831 253.571 831.942 253.741H832.095V252.182H833.553V262.281C833.553 263.125 833.361 263.811 832.977 264.339C832.598 264.872 832.087 265.262 831.443 265.509C830.804 265.761 830.092 265.886 829.308 265.886ZM829.257 260.491C829.862 260.491 830.374 260.353 830.791 260.076C831.209 259.799 831.526 259.401 831.744 258.881C831.961 258.361 832.07 257.739 832.07 257.014C832.07 256.307 831.963 255.683 831.75 255.141C831.537 254.6 831.222 254.176 830.804 253.869C830.386 253.562 829.871 253.409 829.257 253.409C828.618 253.409 828.085 253.571 827.659 253.895C827.237 254.219 826.92 254.653 826.707 255.199C826.498 255.744 826.393 256.349 826.393 257.014C826.393 257.696 826.5 258.299 826.713 258.823C826.93 259.343 827.25 259.752 827.672 260.05C828.098 260.344 828.626 260.491 829.257 260.491ZM837.462 256.094V262H835.954V252.182H837.411V253.716H837.539C837.769 253.217 838.119 252.817 838.587 252.514C839.056 252.207 839.661 252.054 840.403 252.054C841.068 252.054 841.649 252.19 842.148 252.463C842.646 252.732 843.034 253.141 843.311 253.69C843.588 254.236 843.727 254.926 843.727 255.761V262H842.218V255.864C842.218 255.092 842.018 254.491 841.617 254.061C841.217 253.626 840.667 253.409 839.968 253.409C839.487 253.409 839.056 253.513 838.677 253.722C838.302 253.931 838.006 254.236 837.788 254.636C837.571 255.037 837.462 255.523 837.462 256.094ZM850.24 262.205C849.294 262.205 848.478 261.996 847.792 261.578C847.11 261.156 846.583 260.568 846.213 259.814C845.846 259.055 845.663 258.173 845.663 257.168C845.663 256.162 845.846 255.276 846.213 254.509C846.583 253.737 847.099 253.136 847.76 252.706C848.424 252.271 849.2 252.054 850.086 252.054C850.598 252.054 851.103 252.139 851.601 252.31C852.1 252.48 852.554 252.757 852.963 253.141C853.372 253.52 853.698 254.023 853.941 254.649C854.184 255.276 854.305 256.047 854.305 256.963V257.602H846.737V256.298H852.771C852.771 255.744 852.66 255.25 852.439 254.815C852.221 254.381 851.91 254.038 851.505 253.786C851.105 253.535 850.632 253.409 850.086 253.409C849.485 253.409 848.966 253.558 848.527 253.857C848.092 254.151 847.757 254.534 847.523 255.007C847.289 255.48 847.171 255.987 847.171 256.528V257.398C847.171 258.139 847.299 258.768 847.555 259.283C847.815 259.795 848.175 260.185 848.635 260.453C849.095 260.717 849.63 260.849 850.24 260.849C850.636 260.849 850.994 260.794 851.314 260.683C851.637 260.568 851.917 260.398 852.151 260.172C852.385 259.942 852.566 259.656 852.694 259.315L854.152 259.724C853.998 260.219 853.74 260.653 853.378 261.028C853.016 261.399 852.568 261.689 852.036 261.898C851.503 262.102 850.904 262.205 850.24 262.205ZM856.24 262V252.182H857.697V253.665H857.799C857.978 253.179 858.302 252.785 858.771 252.482C859.24 252.18 859.768 252.028 860.356 252.028C860.467 252.028 860.606 252.031 860.772 252.035C860.938 252.039 861.064 252.045 861.149 252.054V253.588C861.098 253.575 860.981 253.556 860.797 253.531C860.618 253.501 860.429 253.486 860.228 253.486C859.751 253.486 859.325 253.586 858.95 253.786C858.579 253.982 858.285 254.255 858.068 254.604C857.855 254.95 857.748 255.344 857.748 255.787V262H856.24Z" fill="white" fill-opacity="0.8"/>
<circle cx="116" cy="225" r="5" fill="#FC5F61"/>
<circle cx="715" cy="225" r="5" fill="#FC5F61"/>
<circle cx="116" cy="256" r="5" fill="#88E958"/>
<circle cx="715" cy="256" r="5" fill="#88E958"/>
<defs>
<linearGradient id="paint0_linear_1181_22161" x1="239.5" y1="65" x2="239.5" y2="104" gradientUnits="userSpaceOnUse">
<stop stop-color="white"/>
<stop offset="1" stop-color="white" stop-opacity="0"/>
</linearGradient>
<linearGradient id="paint1_linear_1181_22161" x1="183.5" y1="166" x2="183.5" y2="195" gradientUnits="userSpaceOnUse">
<stop stop-color="white"/>
<stop offset="1" stop-color="white" stop-opacity="0"/>
</linearGradient>
<linearGradient id="paint2_linear_1181_22161" x1="754.5" y1="166" x2="754.5" y2="195" gradientUnits="userSpaceOnUse">
<stop stop-color="white"/>
<stop offset="1" stop-color="white" stop-opacity="0"/>
</linearGradient>
</defs>
</svg>
