<svg width="24" height="24" viewBox="0 0 24 24" fill="none" xmlns="http://www.w3.org/2000/svg">
<path d="M8 5C8 6.65685 6.65685 8 5 8C3.34315 8 2 6.65685 2 5C2 3.34315 3.34315 2 5 2C6.65685 2 8 3.34315 8 5Z" fill="white" stroke="black"/>
<path d="M22 5C22 6.65685 20.6569 8 19 8C17.3431 8 16 6.65685 16 5C16 3.34315 17.3431 2 19 2C20.6569 2 22 3.34315 22 5Z" fill="white" stroke="black"/>
<path d="M8 19C8 20.6569 6.65685 22 5 22C3.34315 22 2 20.6569 2 19C2 17.3431 3.34315 16 5 16C6.65685 16 8 17.3431 8 19Z" fill="white" stroke="black"/>
<path d="M22 19C22 20.6569 20.6569 22 19 22C17.3431 22 16 20.6569 16 19C16 17.3431 17.3431 16 19 16C20.6569 16 22 17.3431 22 19Z" fill="white" stroke="black"/>
<path d="M16.093 4.25572C16.0626 4.25194 16.0315 4.25 16 4.25H8C7.96849 4.25 7.93744 4.25194 7.90695 4.25572C7.9677 4.49371 8 4.74308 8 5C8 5.25692 7.9677 5.50629 7.90695 5.74428C7.93744 5.74806 7.96849 5.75 8 5.75H16C16.0315 5.75 16.0626 5.74805 16.093 5.74428C16.0323 5.50629 16 5.25692 16 5C16 4.74308 16.0323 4.49371 16.093 4.25572Z" fill="white"/>
<path d="M19 8C19.2569 8 19.5063 7.96771 19.7443 7.90695C19.7481 7.93744 19.75 7.96849 19.75 8V16C19.75 16.0315 19.7481 16.0626 19.7443 16.0931C19.5063 16.0323 19.2569 16 19 16C18.7431 16 18.4937 16.0323 18.2557 16.0931C18.2519 16.0626 18.25 16.0315 18.25 16V8C18.25 7.96849 18.2519 7.93744 18.2557 7.90695C18.4937 7.96771 18.7431 8 19 8Z" fill="white"/>
<path d="M16.0931 18.2557C16.0626 18.2519 16.0315 18.25 16 18.25H8C7.96849 18.25 7.93744 18.2519 7.90695 18.2557C7.9677 18.4937 8 18.7431 8 19C8 19.2569 7.9677 19.5063 7.90695 19.7443C7.93744 19.7481 7.96849 19.75 8 19.75H16C16.0315 19.75 16.0626 19.7481 16.0931 19.7443C16.0323 19.5063 16 19.2569 16 19C16 18.7431 16.0323 18.4937 16.0931 18.2557Z" fill="white"/>
<path d="M5 8C4.74308 8 4.49371 7.9677 4.25572 7.90695C4.25194 7.93744 4.25 7.96849 4.25 8V16C4.25 16.0315 4.25194 16.0626 4.25572 16.093C4.49371 16.0323 4.74308 16 5 16C5.25692 16 5.50629 16.0323 5.74428 16.0931C5.74806 16.0626 5.75 16.0315 5.75 16L5.75 8C5.75 7.96849 5.74806 7.93744 5.74428 7.90695C5.50629 7.9677 5.25692 8 5 8Z" fill="white"/>
<path d="M16.093 4.25572C16.0626 4.25194 16.0315 4.25 16 4.25H8C7.96849 4.25 7.93744 4.25194 7.90695 4.25572C7.9677 4.49371 8 4.74308 8 5C8 5.25692 7.9677 5.50629 7.90695 5.74428C7.93744 5.74806 7.96849 5.75 8 5.75H16C16.0315 5.75 16.0626 5.74805 16.093 5.74428C16.0323 5.50629 16 5.25692 16 5C16 4.74308 16.0323 4.49371 16.093 4.25572Z" stroke="black" stroke-width="0.5" stroke-linecap="round"/>
<path d="M19 8C19.2569 8 19.5063 7.96771 19.7443 7.90695C19.7481 7.93744 19.75 7.96849 19.75 8V16C19.75 16.0315 19.7481 16.0626 19.7443 16.0931C19.5063 16.0323 19.2569 16 19 16C18.7431 16 18.4937 16.0323 18.2557 16.0931C18.2519 16.0626 18.25 16.0315 18.25 16V8C18.25 7.96849 18.2519 7.93744 18.2557 7.90695C18.4937 7.96771 18.7431 8 19 8Z" stroke="black" stroke-width="0.5" stroke-linecap="round"/>
<path d="M16.0931 18.2557C16.0626 18.2519 16.0315 18.25 16 18.25H8C7.96849 18.25 7.93744 18.2519 7.90695 18.2557C7.9677 18.4937 8 18.7431 8 19C8 19.2569 7.9677 19.5063 7.90695 19.7443C7.93744 19.7481 7.96849 19.75 8 19.75H16C16.0315 19.75 16.0626 19.7481 16.0931 19.7443C16.0323 19.5063 16 19.2569 16 19C16 18.7431 16.0323 18.4937 16.0931 18.2557Z" stroke="black" stroke-width="0.5" stroke-linecap="round"/>
<path d="M5 8C4.74308 8 4.49371 7.9677 4.25572 7.90695C4.25194 7.93744 4.25 7.96849 4.25 8V16C4.25 16.0315 4.25194 16.0626 4.25572 16.093C4.49371 16.0323 4.74308 16 5 16C5.25692 16 5.50629 16.0323 5.74428 16.0931C5.74806 16.0626 5.75 16.0315 5.75 16L5.75 8C5.75 7.96849 5.74806 7.93744 5.74428 7.90695C5.50629 7.9677 5.25692 8 5 8Z" stroke="black" stroke-width="0.5" stroke-linecap="round"/>
<path d="M12.6953 7.87305C12.9375 7.87305 13.1406 7.95703 13.3047 8.125C13.4727 8.29297 13.5566 8.49609 13.5566 8.73438C13.5566 8.97266 13.4727 9.17578 13.3047 9.34375C13.1367 9.51172 12.9336 9.5957 12.6953 9.5957C12.4609 9.5957 12.2598 9.51172 12.0918 9.34375C11.9238 9.17578 11.8398 8.97266 11.8398 8.73438C11.8398 8.49609 11.9219 8.29297 12.0859 8.125C12.2539 7.95703 12.457 7.87305 12.6953 7.87305ZM13.0586 10.5684L11.8574 14.7344C11.791 14.9727 11.7578 15.1289 11.7578 15.2031C11.7578 15.2461 11.7754 15.2871 11.8105 15.3262C11.8457 15.3613 11.8828 15.3789 11.9219 15.3789C11.9883 15.3789 12.0547 15.3496 12.1211 15.291C12.2969 15.1465 12.5078 14.8848 12.7539 14.5059L12.9531 14.623C12.3633 15.6504 11.7363 16.1641 11.0723 16.1641C10.8184 16.1641 10.6152 16.0938 10.4629 15.9531C10.3145 15.8086 10.2402 15.627 10.2402 15.4082C10.2402 15.2637 10.2734 15.0801 10.3398 14.8574L11.1543 12.0566C11.2324 11.7871 11.2715 11.584 11.2715 11.4473C11.2715 11.3613 11.2344 11.2852 11.1602 11.2188C11.0859 11.1523 10.9844 11.1191 10.8555 11.1191C10.7969 11.1191 10.7266 11.1211 10.6445 11.125L10.7207 10.8906L12.707 10.5684H13.0586Z" fill="white"/>
</svg>
