<svg width="24" height="24" viewBox="0 0 24 24" fill="none" xmlns="http://www.w3.org/2000/svg">
<path d="M3.17157 3.17157C2 4.34315 2 6.22876 2 10V14C2 17.7712 2 19.6569 3.17157 20.8284C4.34315 22 6.22876 22 10 22H14C17.7712 22 19.6569 22 20.8284 20.8284C22 19.6569 22 17.7712 22 14V10C22 6.22876 22 4.34315 20.8284 3.17157C19.6569 2 17.7712 2 14 2H10C6.22876 2 4.34315 2 3.17157 3.17157Z" fill="white" stroke="black"/>
<path fill-rule="evenodd" clip-rule="evenodd" d="M5 12C5 15.593 7.70699 18.5537 11.1928 18.954C11.7071 19.013 12.2057 18.7943 12.5718 18.4282C13.0292 17.9708 13.0292 17.2292 12.5718 16.7718C12.2057 16.4057 11.9072 15.8595 12.1833 15.4216C12.587 14.7812 13.6075 14.913 14.7395 15.0592C16.7021 15.3127 19 15.6096 19 12C19 8.13401 15.866 5 12 5C8.13401 5 5 8.13401 5 12ZM10.275 9.14286C10.8667 9.14286 11.3464 8.66316 11.3464 8.07143C11.3464 7.47969 10.8667 7 10.275 7C9.68327 7 9.20357 7.47969 9.20357 8.07143C9.20357 8.66316 9.68327 9.14286 10.275 9.14286ZM9.14286 11.2859C9.14286 11.8776 8.66316 12.3573 8.07143 12.3573C7.47969 12.3573 7 11.8776 7 11.2859C7 10.6941 7.47969 10.2144 8.07143 10.2144C8.66316 10.2144 9.14286 10.6941 9.14286 11.2859ZM15.9286 12.3573C16.5203 12.3573 17 11.8776 17 11.2859C17 10.6941 16.5203 10.2144 15.9286 10.2144C15.3368 10.2144 14.8571 10.6941 14.8571 11.2859C14.8571 11.8776 15.3368 12.3573 15.9286 12.3573ZM14.8571 8.07159C14.8571 8.66333 14.3774 9.14302 13.7857 9.14302C13.194 9.14302 12.7143 8.66333 12.7143 8.07159C12.7143 7.47986 13.194 7.00016 13.7857 7.00016C14.3774 7.00016 14.8571 7.47986 14.8571 8.07159Z" fill="#E4E4E4"/>
<path d="M11.1928 18.954L11.2213 18.7056L11.2213 18.7056L11.1928 18.954ZM12.5718 18.4282L12.395 18.2515L12.395 18.2515L12.5718 18.4282ZM12.5718 16.7718L12.395 16.9485L12.395 16.9486L12.5718 16.7718ZM12.1833 15.4216L11.9718 15.2882L11.9718 15.2882L12.1833 15.4216ZM14.7395 15.0592L14.7074 15.3071L14.7074 15.3071L14.7395 15.0592ZM11.2213 18.7056C7.86026 18.3197 5.25 15.4645 5.25 12H4.75C4.75 15.7215 7.55372 18.7877 11.1642 19.2023L11.2213 18.7056ZM12.395 18.2515C12.0714 18.5751 11.6451 18.7543 11.2213 18.7056L11.1642 19.2023C11.7691 19.2718 12.34 19.0136 12.7485 18.605L12.395 18.2515ZM12.395 16.9486C12.7548 17.3083 12.7548 17.8917 12.395 18.2515L12.7485 18.605C13.3036 18.05 13.3036 17.15 12.7485 16.595L12.395 16.9486ZM11.9718 15.2882C11.7808 15.5913 11.7982 15.923 11.9017 16.2088C12.0037 16.4906 12.1951 16.7487 12.395 16.9485L12.7485 16.595C12.5823 16.4288 12.4414 16.2308 12.3718 16.0385C12.3035 15.8501 12.3098 15.6898 12.3948 15.5549L11.9718 15.2882ZM14.7715 14.8113C14.2133 14.7392 13.6485 14.6652 13.1722 14.6959C12.6947 14.7267 12.2374 14.867 11.9718 15.2882L12.3948 15.5549C12.533 15.3357 12.7877 15.2217 13.2044 15.1949C13.6222 15.1679 14.1337 15.233 14.7074 15.3071L14.7715 14.8113ZM18.75 12C18.75 12.8786 18.6098 13.4933 18.3882 13.9216C18.17 14.3435 17.8667 14.5971 17.5087 14.7479C17.1437 14.9016 16.7115 14.9526 16.2368 14.9458C15.7621 14.9389 15.2649 14.875 14.7715 14.8113L14.7074 15.3071C15.1954 15.3702 15.7214 15.4384 16.2296 15.4457C16.7377 15.4531 17.2479 15.4002 17.7028 15.2087C18.1645 15.0142 18.5584 14.681 18.8323 14.1513C19.103 13.628 19.25 12.9262 19.25 12H18.75ZM12 5.25C15.7279 5.25 18.75 8.27208 18.75 12H19.25C19.25 7.99594 16.0041 4.75 12 4.75V5.25ZM5.25 12C5.25 8.27208 8.27208 5.25 12 5.25V4.75C7.99594 4.75 4.75 7.99594 4.75 12H5.25ZM11.0964 8.07143C11.0964 8.52509 10.7287 8.89286 10.275 8.89286V9.39286C11.0048 9.39286 11.5964 8.80123 11.5964 8.07143H11.0964ZM10.275 7.25C10.7287 7.25 11.0964 7.61777 11.0964 8.07143H11.5964C11.5964 7.34162 11.0048 6.75 10.275 6.75V7.25ZM9.45357 8.07143C9.45357 7.61777 9.82134 7.25 10.275 7.25V6.75C9.5452 6.75 8.95357 7.34162 8.95357 8.07143H9.45357ZM10.275 8.89286C9.82134 8.89286 9.45357 8.52509 9.45357 8.07143H8.95357C8.95357 8.80123 9.5452 9.39286 10.275 9.39286V8.89286ZM8.07143 12.6073C8.80123 12.6073 9.39286 12.0157 9.39286 11.2859H8.89286C8.89286 11.7395 8.52509 12.1073 8.07143 12.1073V12.6073ZM6.75 11.2859C6.75 12.0157 7.34162 12.6073 8.07143 12.6073V12.1073C7.61777 12.1073 7.25 11.7395 7.25 11.2859H6.75ZM8.07143 9.96445C7.34162 9.96445 6.75 10.5561 6.75 11.2859H7.25C7.25 10.8322 7.61777 10.4644 8.07143 10.4644V9.96445ZM9.39286 11.2859C9.39286 10.5561 8.80123 9.96445 8.07143 9.96445V10.4644C8.52509 10.4644 8.89286 10.8322 8.89286 11.2859H9.39286ZM16.75 11.2859C16.75 11.7395 16.3822 12.1073 15.9286 12.1073V12.6073C16.6584 12.6073 17.25 12.0157 17.25 11.2859H16.75ZM15.9286 10.4644C16.3822 10.4644 16.75 10.8322 16.75 11.2859H17.25C17.25 10.5561 16.6584 9.96445 15.9286 9.96445V10.4644ZM15.1071 11.2859C15.1071 10.8322 15.4749 10.4644 15.9286 10.4644V9.96445C15.1988 9.96445 14.6071 10.5561 14.6071 11.2859H15.1071ZM15.9286 12.1073C15.4749 12.1073 15.1071 11.7395 15.1071 11.2859H14.6071C14.6071 12.0157 15.1988 12.6073 15.9286 12.6073V12.1073ZM13.7857 9.39302C14.5155 9.39302 15.1071 8.8014 15.1071 8.07159H14.6071C14.6071 8.52525 14.2394 8.89302 13.7857 8.89302V9.39302ZM12.4643 8.07159C12.4643 8.8014 13.0559 9.39302 13.7857 9.39302V8.89302C13.3321 8.89302 12.9643 8.52525 12.9643 8.07159H12.4643ZM13.7857 6.75016C13.0559 6.75016 12.4643 7.34179 12.4643 8.07159H12.9643C12.9643 7.61793 13.3321 7.25016 13.7857 7.25016V6.75016ZM15.1071 8.07159C15.1071 7.34179 14.5155 6.75016 13.7857 6.75016V7.25016C14.2394 7.25016 14.6071 7.61793 14.6071 8.07159H15.1071Z" fill="black"/>
<path d="M9 15C9 14.6262 9 14.4392 9.09135 14.3C9.15119 14.2088 9.23726 14.133 9.34091 14.0804C9.49913 14 9.71154 14 10.1364 14H12.8636C13.2885 14 13.5009 14 13.6591 14.0804C13.7627 14.133 13.8488 14.2088 13.9087 14.3C14 14.4392 14 14.6262 14 15C14 15.3738 14 15.5608 13.9087 15.7C13.8488 15.7912 13.7627 15.867 13.6591 15.9196C13.5009 16 13.2885 16 12.8636 16H10.1364C9.71154 16 9.49913 16 9.34091 15.9196C9.23726 15.867 9.15119 15.7912 9.09135 15.7C9 15.5608 9 15.3738 9 15Z" fill="#E4E4E4" stroke="#1A1A1A" stroke-width="0.5"/>
<path d="M11 16C11 15.6262 11 15.4392 11.0913 15.3C11.1512 15.2088 11.2373 15.133 11.3409 15.0804C11.4991 15 11.7115 15 12.1364 15H14.8636C15.2885 15 15.5009 15 15.6591 15.0804C15.7627 15.133 15.8488 15.2088 15.9087 15.3C16 15.4392 16 15.6262 16 16C16 16.3738 16 16.5608 15.9087 16.7C15.8488 16.7912 15.7627 16.867 15.6591 16.9196C15.5009 17 15.2885 17 14.8636 17H12.1364C11.7115 17 11.4991 17 11.3409 16.9196C11.2373 16.867 11.1512 16.7912 11.0913 16.7C11 16.5608 11 16.3738 11 16Z" fill="white" stroke="#1A1A1A" stroke-width="0.5"/>
</svg>
