<svg width="24" height="24" viewBox="0 0 24 24" fill="none" xmlns="http://www.w3.org/2000/svg">
<path fill-rule="evenodd" clip-rule="evenodd" d="M22.2773 16.2164C22.2773 18.9426 22.2773 20.3057 21.4304 21.1526C20.9792 21.6037 19.7484 21.8173 18.448 21.9176H18.448C17.5575 21.9864 17.1122 22.0207 16.8032 21.7346C16.4941 21.4485 16.4941 20.9802 16.4941 20.0436V12.4016C16.4941 11.4651 16.4941 10.9968 16.8022 10.7108C17.1103 10.4248 17.5562 10.458 18.4481 10.5243C19.7485 10.621 20.9792 10.8291 21.4304 11.2802C22.2773 12.1271 22.2773 13.4902 22.2773 16.2164ZM19.386 13.5664C19.7852 13.5664 20.1089 13.8901 20.1089 14.2893V18.1447C20.1089 18.5439 19.7852 18.8676 19.386 18.8676C18.9867 18.8676 18.6631 18.5439 18.6631 18.1447V14.2893C18.6631 13.8901 18.9867 13.5664 19.386 13.5664Z" fill="white"/>
<path d="M21.4304 21.1526L21.7839 21.5061L21.7839 21.5061L21.4304 21.1526ZM18.448 21.9176V22.4176H18.4672L18.4864 22.4162L18.448 21.9176ZM18.448 21.9176V21.4176H18.4287L18.4095 21.4191L18.448 21.9176ZM16.8032 21.7346L16.4635 22.1015L16.4635 22.1015L16.8032 21.7346ZM16.8022 10.7108L16.462 10.3444L16.462 10.3444L16.8022 10.7108ZM18.4481 10.5243L18.4852 10.0257L18.4481 10.5243ZM21.4304 11.2802L21.0768 11.6338L21.0768 11.6338L21.4304 11.2802ZM21.7839 21.5061C22.3158 20.9743 22.5536 20.2987 22.6669 19.4559C22.7783 18.6274 22.7773 17.5654 22.7773 16.2164H21.7773C21.7773 17.5936 21.7762 18.5763 21.6759 19.3226C21.5775 20.0546 21.3919 20.484 21.0768 20.799L21.7839 21.5061ZM18.4864 22.4162C19.1479 22.3651 19.809 22.2842 20.3708 22.1537C20.9062 22.0293 21.4508 21.8392 21.7839 21.5061L21.0768 20.799C20.9587 20.9171 20.6623 21.0594 20.1445 21.1796C19.653 21.2938 19.0485 21.3698 18.4095 21.4191L18.4864 22.4162ZM18.448 22.4176H18.448V21.4176H18.448V22.4176ZM16.4635 22.1015C16.7304 22.3486 17.0441 22.4346 17.3721 22.4579C17.6791 22.4798 18.0567 22.4493 18.4864 22.4162L18.4095 21.4191C17.9488 21.4547 17.6585 21.4758 17.443 21.4604C17.2484 21.4466 17.185 21.4067 17.1429 21.3677L16.4635 22.1015ZM15.9941 20.0436C15.9941 20.4969 15.9929 20.8903 16.0378 21.2039C16.0852 21.5348 16.1927 21.8508 16.4635 22.1015L17.1429 21.3677C17.1046 21.3323 17.0576 21.2711 17.0277 21.0622C16.9953 20.8359 16.9941 20.527 16.9941 20.0436H15.9941ZM15.9941 12.4016V20.0436H16.9941V12.4016H15.9941ZM16.462 10.3444C16.1919 10.5952 16.0848 10.9111 16.0377 11.2416C15.9929 11.555 15.9941 11.9484 15.9941 12.4016H16.9941C16.9941 11.9183 16.9953 11.6093 17.0276 11.3829C17.0575 11.1737 17.1045 11.1125 17.1424 11.0773L16.462 10.3444ZM18.4852 10.0257C18.0547 9.99367 17.6767 9.96427 17.3697 9.98679C17.042 10.0108 16.7283 10.0972 16.462 10.3444L17.1424 11.0773C17.1841 11.0385 17.2475 10.9984 17.4428 10.9841C17.6587 10.9683 17.9497 10.9886 18.4111 11.0229L18.4852 10.0257ZM21.7839 10.9267C21.4501 10.5929 20.9046 10.4044 20.3692 10.2819C19.8074 10.1534 19.1464 10.0748 18.4852 10.0257L18.4111 11.0229C19.0503 11.0705 19.6548 11.1443 20.1462 11.2567C20.6641 11.3753 20.9594 11.5164 21.0768 11.6338L21.7839 10.9267ZM22.7773 16.2164C22.7773 14.8675 22.7783 13.8054 22.6669 12.977C22.5536 12.1341 22.3158 11.4585 21.7839 10.9267L21.0768 11.6338C21.3919 11.9489 21.5775 12.3783 21.6759 13.1102C21.7762 13.8566 21.7773 14.8392 21.7773 16.2164H22.7773ZM20.6089 14.2893C20.6089 13.6139 20.0614 13.0664 19.386 13.0664V14.0664C19.5091 14.0664 19.6089 14.1662 19.6089 14.2893H20.6089ZM20.6089 18.1447V14.2893H19.6089V18.1447H20.6089ZM19.386 19.3676C20.0614 19.3676 20.6089 18.8201 20.6089 18.1447H19.6089C19.6089 18.2678 19.5091 18.3676 19.386 18.3676V19.3676ZM18.1631 18.1447C18.1631 18.8201 18.7106 19.3676 19.386 19.3676V18.3676C19.2629 18.3676 19.1631 18.2678 19.1631 18.1447H18.1631ZM18.1631 14.2893V18.1447H19.1631V14.2893H18.1631ZM19.386 13.0664C18.7106 13.0664 18.1631 13.6139 18.1631 14.2893H19.1631C19.1631 14.1662 19.2629 14.0664 19.386 14.0664V13.0664Z" fill="black"/>
<path fill-rule="evenodd" clip-rule="evenodd" d="M2.84692 3.56957C2 4.41649 2 5.77958 2 8.50575V16.2166C2 18.9427 2 20.3058 2.84692 21.1527C3.69384 21.9997 5.05694 21.9997 7.78313 21.9997H8.74699C11.4732 21.9997 12.8363 21.9997 13.6832 21.1527C14.5301 20.3058 14.5301 18.9427 14.5301 16.2166V8.50575C14.5301 5.77958 14.5301 4.41649 13.6832 3.56957C12.8363 2.72266 11.4732 2.72266 8.74699 2.72266H7.78313C5.05694 2.72266 3.69384 2.72266 2.84692 3.56957ZM5.13281 5.61449C5.13281 5.21525 5.45646 4.8916 5.8557 4.8916H10.675C11.0742 4.8916 11.3979 5.21525 11.3979 5.61449C11.3979 6.01373 11.0742 6.33738 10.675 6.33738H5.8557C5.45646 6.33738 5.13281 6.01373 5.13281 5.61449ZM9.71113 17.6626C9.71113 18.4611 9.06383 19.1084 8.26534 19.1084C7.46686 19.1084 6.81956 18.4611 6.81956 17.6626C6.81956 16.8641 7.46686 16.2168 8.26534 16.2168C9.06383 16.2168 9.71113 16.8641 9.71113 17.6626Z" fill="white"/>
<path d="M2.84692 3.56957L2.49337 3.21602L2.49337 3.21602L2.84692 3.56957ZM13.6832 21.1527L14.0368 21.5063L14.0368 21.5063L13.6832 21.1527ZM13.6832 3.56957L14.0368 3.21602L14.0368 3.21602L13.6832 3.56957ZM2.5 8.50575C2.5 7.12853 2.50106 6.14591 2.60141 5.39956C2.69982 4.6676 2.8854 4.2382 3.20047 3.92313L2.49337 3.21602C1.96152 3.74786 1.72364 4.42346 1.61032 5.26632C1.49894 6.09479 1.5 7.1568 1.5 8.50575H2.5ZM2.5 16.2166V8.50575H1.5V16.2166H2.5ZM3.20047 20.7992C2.8854 20.4841 2.69982 20.0547 2.60141 19.3227C2.50106 18.5764 2.5 17.5938 2.5 16.2166H1.5C1.5 17.5655 1.49894 18.6275 1.61032 19.456C1.72364 20.2988 1.96152 20.9745 2.49337 21.5063L3.20047 20.7992ZM7.78313 21.4997C6.4059 21.4997 5.42327 21.4986 4.67692 21.3982C3.94495 21.2998 3.51555 21.1143 3.20047 20.7992L2.49337 21.5063C3.02521 22.0381 3.70082 22.276 4.54367 22.3893C5.37215 22.5007 6.43417 22.4997 7.78313 22.4997V21.4997ZM8.74699 21.4997H7.78313V22.4997H8.74699V21.4997ZM13.3296 20.7992C13.0146 21.1143 12.5852 21.2998 11.8532 21.3982C11.1068 21.4986 10.1242 21.4997 8.74699 21.4997V22.4997C10.096 22.4997 11.158 22.5007 11.9864 22.3893C12.8293 22.276 13.5049 22.0381 14.0368 21.5063L13.3296 20.7992ZM14.0301 16.2166C14.0301 17.5938 14.0291 18.5764 13.9287 19.3227C13.8303 20.0547 13.6447 20.4841 13.3296 20.7992L14.0368 21.5063C14.5686 20.9745 14.8065 20.2988 14.9198 19.456C15.0312 18.6275 15.0301 17.5655 15.0301 16.2166H14.0301ZM14.0301 8.50575V16.2166H15.0301V8.50575H14.0301ZM13.3296 3.92313C13.6447 4.2382 13.8303 4.6676 13.9287 5.39956C14.0291 6.14591 14.0301 7.12853 14.0301 8.50575H15.0301C15.0301 7.1568 15.0312 6.09479 14.9198 5.26632C14.8065 4.42346 14.5686 3.74786 14.0368 3.21602L13.3296 3.92313ZM8.74699 3.22266C10.1242 3.22266 11.1068 3.22372 11.8532 3.32406C12.5852 3.42247 13.0146 3.60805 13.3296 3.92313L14.0368 3.21602C13.5049 2.68418 12.8293 2.4463 11.9864 2.33298C11.158 2.22159 10.096 2.22266 8.74699 2.22266V3.22266ZM7.78313 3.22266H8.74699V2.22266H7.78313V3.22266ZM3.20047 3.92313C3.51555 3.60805 3.94495 3.42247 4.67692 3.32406C5.42327 3.22372 6.4059 3.22266 7.78313 3.22266V2.22266C6.43417 2.22266 5.37215 2.22159 4.54367 2.33298C3.70082 2.4463 3.02521 2.68418 2.49337 3.21602L3.20047 3.92313ZM5.8557 4.3916C5.18032 4.3916 4.63281 4.9391 4.63281 5.61449H5.63281C5.63281 5.49139 5.7326 5.3916 5.8557 5.3916V4.3916ZM10.675 4.3916H5.8557V5.3916H10.675V4.3916ZM11.8979 5.61449C11.8979 4.9391 11.3504 4.3916 10.675 4.3916V5.3916C10.7981 5.3916 10.8979 5.49139 10.8979 5.61449H11.8979ZM10.675 6.83738C11.3504 6.83738 11.8979 6.28987 11.8979 5.61449H10.8979C10.8979 5.73758 10.7981 5.83738 10.675 5.83738V6.83738ZM5.8557 6.83738H10.675V5.83738H5.8557V6.83738ZM4.63281 5.61449C4.63281 6.28987 5.18032 6.83738 5.8557 6.83738V5.83738C5.7326 5.83738 5.63281 5.73758 5.63281 5.61449H4.63281ZM8.26534 19.6084C9.33997 19.6084 10.2111 18.7372 10.2111 17.6626H9.21113C9.21113 18.1849 8.78769 18.6084 8.26534 18.6084V19.6084ZM6.31956 17.6626C6.31956 18.7372 7.19072 19.6084 8.26534 19.6084V18.6084C7.743 18.6084 7.31956 18.1849 7.31956 17.6626H6.31956ZM8.26534 15.7168C7.19072 15.7168 6.31956 16.588 6.31956 17.6626H7.31956C7.31956 17.1403 7.743 16.7168 8.26534 16.7168V15.7168ZM10.2111 17.6626C10.2111 16.588 9.33997 15.7168 8.26534 15.7168V16.7168C8.78769 16.7168 9.21113 17.1403 9.21113 17.6626H10.2111Z" fill="black"/>
<path fill-rule="evenodd" clip-rule="evenodd" d="M15.7447 2.60177C15.8117 2.20818 16.185 1.9434 16.5786 2.01035C19.6626 2.535 21.9996 5.24933 21.9996 8.5061C21.9996 8.77354 21.8519 9.01912 21.6157 9.14455C21.3795 9.26998 21.0934 9.25476 20.8718 9.10498L19.426 8.12762C19.0953 7.90403 19.0084 7.45464 19.232 7.12389C19.4556 6.79313 19.905 6.70626 20.2357 6.92986L20.3317 6.99474C19.7756 5.1544 18.2308 3.75797 16.3361 3.43565C15.9426 3.36869 15.6778 2.99535 15.7447 2.60177Z" fill="white" stroke="black" stroke-width="0.5" stroke-linecap="round"/>
</svg>
