<svg width="24" height="24" viewBox="0 0 24 24" fill="none" xmlns="http://www.w3.org/2000/svg">
<circle cx="18" cy="18" r="3" fill="white"/>
<mask id="path-2-outside-1_189_589" maskUnits="userSpaceOnUse" x="1" y="10" width="22" height="12" fill="black">
<rect fill="white" x="1" y="10" width="22" height="12"/>
<path fill-rule="evenodd" clip-rule="evenodd" d="M13.6266 21H10C6.22876 21 4.34315 21 3.17157 19.8284C2 18.6569 2 16.7712 2 13C2 12.5581 2 11.392 2.00189 11H21.9981C22 11.392 22 12.5581 22 13C22 13.5997 22 14.1517 21.9953 14.6607C21.0406 13.3511 19.4947 12.5 17.75 12.5C14.8505 12.5 12.5 14.8505 12.5 17.75C12.5 18.9772 12.9211 20.1061 13.6266 21ZM6 18C5.58579 18 5.25 18.3358 5.25 18.75C5.25 19.1642 5.58579 19.5 6 19.5H10C10.4142 19.5 10.75 19.1642 10.75 18.75C10.75 18.3358 10.4142 18 10 18H6ZM5.25 16.25C5.25 15.8358 5.52473 15.5 5.86364 15.5H9.13636C9.47527 15.5 9.75 15.8358 9.75 16.25C9.75 16.6642 9.47527 17 9.13636 17H5.86364C5.52473 17 5.25 16.6642 5.25 16.25ZM5.72727 13C5.46368 13 5.25 13.3358 5.25 13.75C5.25 14.1642 5.46368 14.5 5.72727 14.5H8.27273C8.53632 14.5 8.75 14.1642 8.75 13.75C8.75 13.3358 8.53632 13 8.27273 13H5.72727Z"/>
</mask>
<path fill-rule="evenodd" clip-rule="evenodd" d="M13.6266 21H10C6.22876 21 4.34315 21 3.17157 19.8284C2 18.6569 2 16.7712 2 13C2 12.5581 2 11.392 2.00189 11H21.9981C22 11.392 22 12.5581 22 13C22 13.5997 22 14.1517 21.9953 14.6607C21.0406 13.3511 19.4947 12.5 17.75 12.5C14.8505 12.5 12.5 14.8505 12.5 17.75C12.5 18.9772 12.9211 20.1061 13.6266 21ZM6 18C5.58579 18 5.25 18.3358 5.25 18.75C5.25 19.1642 5.58579 19.5 6 19.5H10C10.4142 19.5 10.75 19.1642 10.75 18.75C10.75 18.3358 10.4142 18 10 18H6ZM5.25 16.25C5.25 15.8358 5.52473 15.5 5.86364 15.5H9.13636C9.47527 15.5 9.75 15.8358 9.75 16.25C9.75 16.6642 9.47527 17 9.13636 17H5.86364C5.52473 17 5.25 16.6642 5.25 16.25ZM5.72727 13C5.46368 13 5.25 13.3358 5.25 13.75C5.25 14.1642 5.46368 14.5 5.72727 14.5H8.27273C8.53632 14.5 8.75 14.1642 8.75 13.75C8.75 13.3358 8.53632 13 8.27273 13H5.72727Z" fill="white"/>
<path d="M13.6266 21V22H15.6898L14.4116 20.3805L13.6266 21ZM2.00189 11V10H1.00668L1.0019 10.9952L2.00189 11ZM21.9981 11L22.9981 10.9952L22.9933 10H21.9981V11ZM21.9953 14.6607L21.1872 15.2497L22.9673 17.6917L22.9952 14.6699L21.9953 14.6607ZM10 22H13.6266V20H10V22ZM2.46447 20.5355C3.26702 21.3381 4.27752 21.6833 5.47767 21.8446C6.64904 22.0021 8.14265 22 10 22V20C8.08611 20 6.75129 19.9979 5.74416 19.8625C4.76579 19.7309 4.2477 19.4903 3.87868 19.1213L2.46447 20.5355ZM1 13C1 14.8573 0.997876 16.351 1.15536 17.5223C1.31672 18.7225 1.66191 19.733 2.46447 20.5355L3.87868 19.1213C3.50966 18.7523 3.26907 18.2342 3.13753 17.2558C3.00212 16.2487 3 14.9139 3 13H1ZM1.0019 10.9952C0.999997 11.3903 1 12.5598 1 13H3C3 12.5564 3 11.3937 3.00187 11.0048L1.0019 10.9952ZM21.9981 10H2.00189V12H21.9981V10ZM23 13C23 12.5598 23 11.3903 22.9981 10.9952L20.9981 11.0048C21 11.3937 21 12.5564 21 13H23ZM22.9952 14.6699C23 14.1554 23 13.5985 23 13H21C21 13.6008 21 14.1479 20.9953 14.6514L22.9952 14.6699ZM17.75 13.5C19.1616 13.5 20.4127 14.1872 21.1872 15.2497L22.8034 14.0716C21.6686 12.5149 19.8278 11.5 17.75 11.5V13.5ZM13.5 17.75C13.5 15.4028 15.4028 13.5 17.75 13.5V11.5C14.2982 11.5 11.5 14.2982 11.5 17.75H13.5ZM14.4116 20.3805C13.8403 19.6567 13.5 18.7445 13.5 17.75H11.5C11.5 19.2099 12.0018 20.5555 12.8417 21.6195L14.4116 20.3805ZM6.25 18.75C6.25 18.8881 6.13807 19 6 19V17C5.0335 17 4.25 17.7835 4.25 18.75H6.25ZM6 18.5C6.13807 18.5 6.25 18.6119 6.25 18.75H4.25C4.25 19.7165 5.0335 20.5 6 20.5V18.5ZM10 18.5H6V20.5H10V18.5ZM9.75 18.75C9.75 18.6119 9.86193 18.5 10 18.5V20.5C10.9665 20.5 11.75 19.7165 11.75 18.75H9.75ZM10 19C9.86193 19 9.75 18.8881 9.75 18.75H11.75C11.75 17.7835 10.9665 17 10 17V19ZM6 19H10V17H6V19ZM5.86364 14.5C4.79418 14.5 4.25 15.4805 4.25 16.25H6.25C6.25 16.2598 6.2474 16.2995 6.20369 16.3529C6.15829 16.4084 6.04328 16.5 5.86364 16.5V14.5ZM9.13636 14.5H5.86364V16.5H9.13636V14.5ZM10.75 16.25C10.75 15.4805 10.2058 14.5 9.13636 14.5V16.5C8.95672 16.5 8.84171 16.4084 8.79631 16.3529C8.7526 16.2995 8.75 16.2598 8.75 16.25H10.75ZM9.13636 18C10.2058 18 10.75 17.0195 10.75 16.25H8.75C8.75 16.2402 8.7526 16.2005 8.79631 16.1471C8.84171 16.0916 8.95672 16 9.13636 16V18ZM5.86364 18H9.13636V16H5.86364V18ZM4.25 16.25C4.25 17.0195 4.79418 18 5.86364 18V16C6.04328 16 6.15829 16.0916 6.20369 16.1471C6.2474 16.2005 6.25 16.2402 6.25 16.25H4.25ZM6.25 13.75C6.25 13.7037 6.26389 13.7087 6.23345 13.7565C6.21056 13.7925 6.05596 14 5.72727 14V12C5.13499 12 4.74175 12.3754 4.54613 12.6828C4.34295 13.0021 4.25 13.3821 4.25 13.75H6.25ZM5.72727 13.5C6.05596 13.5 6.21056 13.7075 6.23345 13.7435C6.26389 13.7913 6.25 13.7963 6.25 13.75H4.25C4.25 14.1179 4.34295 14.4979 4.54613 14.8172C4.74175 15.1246 5.13499 15.5 5.72727 15.5V13.5ZM8.27273 13.5H5.72727V15.5H8.27273V13.5ZM7.75 13.75C7.75 13.7963 7.73611 13.7913 7.76655 13.7435C7.78944 13.7075 7.94404 13.5 8.27273 13.5V15.5C8.86501 15.5 9.25824 15.1246 9.45387 14.8172C9.65705 14.4979 9.75 14.1179 9.75 13.75H7.75ZM8.27273 14C7.94404 14 7.78944 13.7925 7.76655 13.7565C7.73611 13.7087 7.75 13.7037 7.75 13.75H9.75C9.75 13.3821 9.65705 13.0021 9.45387 12.6828C9.25824 12.3754 8.86501 12 8.27273 12V14ZM5.72727 14H8.27273V12H5.72727V14Z" fill="black" mask="url(#path-2-outside-1_189_589)"/>
<path fill-rule="evenodd" clip-rule="evenodd" d="M17.75 15.5C16.5074 15.5 15.5 16.5074 15.5 17.75C15.5 18.9926 16.5074 20 17.75 20C18.9926 20 20 18.9926 20 17.75C20 16.5074 18.9926 15.5 17.75 15.5ZM14 17.75C14 15.6789 15.6789 14 17.75 14C19.8211 14 21.5 15.6789 21.5 17.75C21.5 18.5143 21.2713 19.2252 20.8787 19.818L21.7803 20.7197C22.0732 21.0126 22.0732 21.4874 21.7803 21.7803C21.4874 22.0732 21.0126 22.0732 20.7197 21.7803L19.818 20.8787C19.2252 21.2713 18.5143 21.5 17.75 21.5C15.6789 21.5 14 19.8211 14 17.75Z" fill="black"/>
<path d="M22.5 8.66667H22.5002L22.4998 8.65376C22.4339 6.10158 22.2051 4.39572 21.2436 3.17788C20.557 2.30824 19.6619 1.8927 18.4895 1.69306C17.3556 1.49997 15.9029 1.49999 14.0529 1.5L14.0052 1.5H9.99484L9.94707 1.5C8.09714 1.49999 6.64439 1.49997 5.51051 1.69306C4.33814 1.8927 3.44299 2.30824 2.75638 3.17788C1.79486 4.39572 1.5661 6.10158 1.50017 8.65376L1.5 8.65375V8.66667V10V10.5H2H22H22.5V10V8.66667Z" fill="white" stroke="black" stroke-linecap="round"/>
<path d="M7 5.36364C7 4.61052 7.61052 4 8.36364 4H15.6364C16.3895 4 17 4.61052 17 5.36364C17 6.11675 16.3895 6.72727 15.6364 6.72727H8.36364C7.61052 6.72727 7 6.11675 7 5.36364Z" fill="#1A1A1A"/>
</svg>
