<svg width="24" height="24" viewBox="0 0 24 24" fill="none" xmlns="http://www.w3.org/2000/svg">
<mask id="path-1-outside-1_1906_515" maskUnits="userSpaceOnUse" x="3" y="1" width="18" height="22" fill="black">
<rect fill="white" x="3" y="1" width="18" height="22"/>
<path fill-rule="evenodd" clip-rule="evenodd" d="M5.17157 3.17157C4 4.34315 4 6.22876 4 10V14C4 17.7712 4 19.6569 5.17157 20.8284C6.34315 22 8.22876 22 12 22C15.7712 22 17.6569 22 18.8284 20.8284C20 19.6569 20 17.7712 20 14V10C20 6.22876 20 4.34315 18.8284 3.17157C17.6569 2 15.7712 2 12 2C8.22876 2 6.34315 2 5.17157 3.17157ZM9 4.25C8.58579 4.25 8.25 4.58579 8.25 5C8.25 5.41421 8.58579 5.75 9 5.75H15C15.4142 5.75 15.75 5.41421 15.75 5C15.75 4.58579 15.4142 4.25 15 4.25H9ZM10.501 17.153C8.782 17.153 7.684 16.352 7.684 14.57V11.141C7.684 10.7 7.972 10.403 8.422 10.403C8.872 10.403 9.16 10.7 9.16 11.141V14.687C9.16 15.569 9.655 15.965 10.501 15.965C11.347 15.965 11.842 15.569 11.842 14.687V11.141C11.842 10.7 12.13 10.403 12.58 10.403C13.03 10.403 13.318 10.7 13.318 11.141V14.57C13.318 16.352 12.22 17.153 10.501 17.153ZM15.4269 17.117C14.9769 17.117 14.6889 16.82 14.6889 16.379V11.141C14.6889 10.7 14.9769 10.403 15.4269 10.403C15.8769 10.403 16.1649 10.7 16.1649 11.141V16.379C16.1649 16.82 15.8769 17.117 15.4269 17.117Z"/>
</mask>
<path fill-rule="evenodd" clip-rule="evenodd" d="M5.17157 3.17157C4 4.34315 4 6.22876 4 10V14C4 17.7712 4 19.6569 5.17157 20.8284C6.34315 22 8.22876 22 12 22C15.7712 22 17.6569 22 18.8284 20.8284C20 19.6569 20 17.7712 20 14V10C20 6.22876 20 4.34315 18.8284 3.17157C17.6569 2 15.7712 2 12 2C8.22876 2 6.34315 2 5.17157 3.17157ZM9 4.25C8.58579 4.25 8.25 4.58579 8.25 5C8.25 5.41421 8.58579 5.75 9 5.75H15C15.4142 5.75 15.75 5.41421 15.75 5C15.75 4.58579 15.4142 4.25 15 4.25H9ZM10.501 17.153C8.782 17.153 7.684 16.352 7.684 14.57V11.141C7.684 10.7 7.972 10.403 8.422 10.403C8.872 10.403 9.16 10.7 9.16 11.141V14.687C9.16 15.569 9.655 15.965 10.501 15.965C11.347 15.965 11.842 15.569 11.842 14.687V11.141C11.842 10.7 12.13 10.403 12.58 10.403C13.03 10.403 13.318 10.7 13.318 11.141V14.57C13.318 16.352 12.22 17.153 10.501 17.153ZM15.4269 17.117C14.9769 17.117 14.6889 16.82 14.6889 16.379V11.141C14.6889 10.7 14.9769 10.403 15.4269 10.403C15.8769 10.403 16.1649 10.7 16.1649 11.141V16.379C16.1649 16.82 15.8769 17.117 15.4269 17.117Z" fill="white"/>
<path d="M5.17157 20.8284L5.87868 20.1213L5.87868 20.1213L5.17157 20.8284ZM18.8284 20.8284L18.1213 20.1213L18.1213 20.1213L18.8284 20.8284ZM5 10C5 8.08611 5.00212 6.75129 5.13753 5.74416C5.26907 4.76579 5.50966 4.2477 5.87868 3.87868L4.46447 2.46447C3.66191 3.26702 3.31672 4.27752 3.15536 5.47766C2.99788 6.64904 3 8.14265 3 10H5ZM5 14V10H3V14H5ZM5.87868 20.1213C5.50966 19.7523 5.26907 19.2342 5.13753 18.2558C5.00212 17.2487 5 15.9139 5 14H3C3 15.8573 2.99788 17.351 3.15536 18.5223C3.31672 19.7225 3.66191 20.733 4.46447 21.5355L5.87868 20.1213ZM12 21C10.0861 21 8.75129 20.9979 7.74416 20.8625C6.76579 20.7309 6.2477 20.4903 5.87868 20.1213L4.46447 21.5355C5.26702 22.3381 6.27752 22.6833 7.47767 22.8446C8.64904 23.0021 10.1427 23 12 23V21ZM18.1213 20.1213C17.7523 20.4903 17.2342 20.7309 16.2558 20.8625C15.2487 20.9979 13.9139 21 12 21V23C13.8573 23 15.351 23.0021 16.5223 22.8446C17.7225 22.6833 18.733 22.3381 19.5355 21.5355L18.1213 20.1213ZM19 14C19 15.9139 18.9979 17.2487 18.8625 18.2558C18.7309 19.2342 18.4903 19.7523 18.1213 20.1213L19.5355 21.5355C20.3381 20.733 20.6833 19.7225 20.8446 18.5223C21.0021 17.351 21 15.8573 21 14H19ZM19 10V14H21V10H19ZM18.1213 3.87868C18.4903 4.2477 18.7309 4.76579 18.8625 5.74416C18.9979 6.75129 19 8.08611 19 10H21C21 8.14265 21.0021 6.64904 20.8446 5.47767C20.6833 4.27752 20.3381 3.26702 19.5355 2.46447L18.1213 3.87868ZM12 3C13.9139 3 15.2487 3.00212 16.2558 3.13753C17.2342 3.26907 17.7523 3.50966 18.1213 3.87868L19.5355 2.46447C18.733 1.66191 17.7225 1.31672 16.5223 1.15536C15.351 0.997876 13.8573 1 12 1V3ZM5.87868 3.87868C6.2477 3.50966 6.76579 3.26907 7.74416 3.13753C8.75129 3.00212 10.0861 3 12 3V1C10.1427 1 8.64904 0.997876 7.47767 1.15536C6.27752 1.31672 5.26702 1.66191 4.46447 2.46447L5.87868 3.87868ZM9.25 5C9.25 5.13807 9.13807 5.25 9 5.25V3.25C8.0335 3.25 7.25 4.0335 7.25 5H9.25ZM9 4.75C9.13807 4.75 9.25 4.86193 9.25 5H7.25C7.25 5.9665 8.0335 6.75 9 6.75V4.75ZM15 4.75H9V6.75H15V4.75ZM14.75 5C14.75 4.86193 14.8619 4.75 15 4.75V6.75C15.9665 6.75 16.75 5.9665 16.75 5H14.75ZM15 5.25C14.8619 5.25 14.75 5.13807 14.75 5H16.75C16.75 4.0335 15.9665 3.25 15 3.25V5.25ZM9 5.25H15V3.25H9V5.25ZM6.684 14.57C6.684 15.6746 7.03262 16.6282 7.79394 17.2863C8.52983 17.9224 9.50379 18.153 10.501 18.153V16.153C9.77921 16.153 9.34467 15.9831 9.10181 15.7732C8.88438 15.5853 8.684 15.2474 8.684 14.57H6.684ZM6.684 11.141V14.57H8.684V11.141H6.684ZM8.422 9.403C7.97146 9.403 7.51723 9.55643 7.17406 9.90261C6.83225 10.2474 6.684 10.6993 6.684 11.141H8.684C8.684 11.1396 8.68416 11.1596 8.67121 11.1938C8.65787 11.229 8.63342 11.2713 8.59444 11.3106C8.55534 11.3501 8.51256 11.3755 8.47592 11.3896C8.44038 11.4033 8.41962 11.403 8.422 11.403V9.403ZM10.16 11.141C10.16 10.6993 10.0118 10.2474 9.66994 9.90261C9.32677 9.55643 8.87254 9.403 8.422 9.403V11.403C8.42438 11.403 8.40362 11.4033 8.36808 11.3896C8.33144 11.3755 8.28866 11.3501 8.24956 11.3106C8.21058 11.2713 8.18613 11.229 8.17279 11.1938C8.15984 11.1596 8.16 11.1396 8.16 11.141H10.16ZM10.16 14.687V11.141H8.16V14.687H10.16ZM10.501 14.965C10.2165 14.965 10.1642 14.897 10.187 14.9178C10.1985 14.9282 10.1965 14.9337 10.1884 14.9118C10.1784 14.8846 10.16 14.8162 10.16 14.687H8.16C8.16 15.3136 8.34069 15.9409 8.8395 16.3957C9.3213 16.835 9.9395 16.965 10.501 16.965V14.965ZM10.842 14.687C10.842 14.8162 10.8236 14.8846 10.8136 14.9118C10.8055 14.9337 10.8035 14.9282 10.815 14.9178C10.8378 14.897 10.7855 14.965 10.501 14.965V16.965C11.0625 16.965 11.6807 16.835 12.1625 16.3957C12.6613 15.9409 12.842 15.3136 12.842 14.687H10.842ZM10.842 11.141V14.687H12.842V11.141H10.842ZM12.58 9.403C12.1295 9.403 11.6752 9.55643 11.3321 9.90261C10.9902 10.2474 10.842 10.6993 10.842 11.141H12.842C12.842 11.1396 12.8422 11.1596 12.8292 11.1938C12.8159 11.229 12.7914 11.2713 12.7524 11.3106C12.7133 11.3501 12.6706 11.3755 12.6339 11.3896C12.5984 11.4033 12.5776 11.403 12.58 11.403V9.403ZM14.318 11.141C14.318 10.6993 14.1698 10.2474 13.8279 9.90261C13.4848 9.55643 13.0305 9.403 12.58 9.403V11.403C12.5824 11.403 12.5616 11.4033 12.5261 11.3896C12.4894 11.3755 12.4467 11.3501 12.4076 11.3106C12.3686 11.2713 12.3441 11.229 12.3308 11.1938C12.3178 11.1596 12.318 11.1396 12.318 11.141H14.318ZM14.318 14.57V11.141H12.318V14.57H14.318ZM10.501 18.153C11.4982 18.153 12.4722 17.9224 13.2081 17.2863C13.9694 16.6282 14.318 15.6746 14.318 14.57H12.318C12.318 15.2474 12.1176 15.5853 11.9002 15.7732C11.6573 15.9831 11.2228 16.153 10.501 16.153V18.153ZM13.6889 16.379C13.6889 16.8207 13.8371 17.2726 14.1789 17.6174C14.5221 17.9636 14.9763 18.117 15.4269 18.117V16.117C15.4245 16.117 15.4453 16.1167 15.4808 16.1304C15.5174 16.1445 15.5602 16.1699 15.5993 16.2094C15.6383 16.2487 15.6627 16.291 15.6761 16.3262C15.689 16.3604 15.6889 16.3804 15.6889 16.379H13.6889ZM13.6889 11.141V16.379H15.6889V11.141H13.6889ZM15.4269 9.403C14.9763 9.403 14.5221 9.55643 14.1789 9.90261C13.8371 10.2474 13.6889 10.6993 13.6889 11.141H15.6889C15.6889 11.1396 15.689 11.1596 15.6761 11.1938C15.6627 11.229 15.6383 11.2713 15.5993 11.3106C15.5602 11.3501 15.5174 11.3755 15.4808 11.3896C15.4453 11.4033 15.4245 11.403 15.4269 11.403V9.403ZM17.1649 11.141C17.1649 10.6993 17.0166 10.2474 16.6748 9.90261C16.3317 9.55643 15.8774 9.403 15.4269 9.403V11.403C15.4293 11.403 15.4085 11.4033 15.373 11.3896C15.3363 11.3755 15.2935 11.3501 15.2544 11.3106C15.2155 11.2713 15.191 11.229 15.1777 11.1938C15.1647 11.1596 15.1649 11.1396 15.1649 11.141H17.1649ZM17.1649 16.379V11.141H15.1649V16.379H17.1649ZM15.4269 18.117C15.8774 18.117 16.3317 17.9636 16.6748 17.6174C17.0166 17.2726 17.1649 16.8207 17.1649 16.379H15.1649C15.1649 16.3804 15.1647 16.3604 15.1777 16.3262C15.191 16.291 15.2155 16.2487 15.2544 16.2094C15.2935 16.1699 15.3363 16.1445 15.373 16.1304C15.4085 16.1167 15.4293 16.117 15.4269 16.117V18.117Z" fill="black" mask="url(#path-1-outside-1_1906_515)"/>
</svg>
