<svg width="24" height="24" viewBox="0 0 24 24" fill="none" xmlns="http://www.w3.org/2000/svg">
<mask id="path-1-outside-1_1906_519" maskUnits="userSpaceOnUse" x="3" y="1" width="18" height="22" fill="black">
<rect fill="white" x="3" y="1" width="18" height="22"/>
<path fill-rule="evenodd" clip-rule="evenodd" d="M5.17157 3.17157C4 4.34315 4 6.22876 4 10V14C4 17.7712 4 19.6569 5.17157 20.8284C6.34315 22 8.22876 22 12 22C15.7712 22 17.6569 22 18.8284 20.8284C20 19.6569 20 17.7712 20 14V10C20 6.22876 20 4.34315 18.8284 3.17157C17.6569 2 15.7712 2 12 2C8.22876 2 6.34315 2 5.17157 3.17157ZM9 4.25C8.58579 4.25 8.25 4.58579 8.25 5C8.25 5.41421 8.58579 5.75 9 5.75H15C15.4142 5.75 15.75 5.41421 15.75 5C15.75 4.58579 15.4142 4.25 15 4.25H9ZM9.3065 17.1445C7.683 17.1445 6.646 16.388 6.646 14.705V11.4665C6.646 11.05 6.918 10.7695 7.343 10.7695C7.768 10.7695 8.04 11.05 8.04 11.4665V14.8155C8.04 15.6485 8.5075 16.0225 9.3065 16.0225C10.1055 16.0225 10.573 15.6485 10.573 14.8155V11.4665C10.573 11.05 10.845 10.7695 11.27 10.7695C11.695 10.7695 11.967 11.05 11.967 11.4665V14.705C11.967 16.388 10.93 17.1445 9.3065 17.1445ZM13.0492 16.5155C13.0492 16.371 13.0747 16.218 13.2362 15.98L14.6982 13.8465L13.3637 11.849C13.2787 11.7215 13.2192 11.5855 13.2192 11.424C13.2192 11.0585 13.5167 10.7695 13.9162 10.7695C14.2477 10.7695 14.4092 10.965 14.4942 11.1095L15.5057 12.852L16.5852 11.1095C16.7297 10.88 16.8487 10.7695 17.1547 10.7695C17.4947 10.7695 17.8262 10.9565 17.8262 11.3985C17.8262 11.5175 17.7667 11.679 17.6987 11.7725L16.2792 13.8465L17.6647 15.929C17.6794 15.9515 17.6935 15.9728 17.7069 15.9932C17.8256 16.173 17.8942 16.2769 17.8942 16.422C17.8942 16.8725 17.5712 17.1105 17.1802 17.1105C16.9507 17.1105 16.7552 17.0595 16.5937 16.7875L15.4717 14.909L14.2647 16.8385C14.1457 17.034 13.9332 17.1105 13.7207 17.1105C13.3127 17.1105 13.0492 16.8555 13.0492 16.5155Z"/>
</mask>
<path fill-rule="evenodd" clip-rule="evenodd" d="M5.17157 3.17157C4 4.34315 4 6.22876 4 10V14C4 17.7712 4 19.6569 5.17157 20.8284C6.34315 22 8.22876 22 12 22C15.7712 22 17.6569 22 18.8284 20.8284C20 19.6569 20 17.7712 20 14V10C20 6.22876 20 4.34315 18.8284 3.17157C17.6569 2 15.7712 2 12 2C8.22876 2 6.34315 2 5.17157 3.17157ZM9 4.25C8.58579 4.25 8.25 4.58579 8.25 5C8.25 5.41421 8.58579 5.75 9 5.75H15C15.4142 5.75 15.75 5.41421 15.75 5C15.75 4.58579 15.4142 4.25 15 4.25H9ZM9.3065 17.1445C7.683 17.1445 6.646 16.388 6.646 14.705V11.4665C6.646 11.05 6.918 10.7695 7.343 10.7695C7.768 10.7695 8.04 11.05 8.04 11.4665V14.8155C8.04 15.6485 8.5075 16.0225 9.3065 16.0225C10.1055 16.0225 10.573 15.6485 10.573 14.8155V11.4665C10.573 11.05 10.845 10.7695 11.27 10.7695C11.695 10.7695 11.967 11.05 11.967 11.4665V14.705C11.967 16.388 10.93 17.1445 9.3065 17.1445ZM13.0492 16.5155C13.0492 16.371 13.0747 16.218 13.2362 15.98L14.6982 13.8465L13.3637 11.849C13.2787 11.7215 13.2192 11.5855 13.2192 11.424C13.2192 11.0585 13.5167 10.7695 13.9162 10.7695C14.2477 10.7695 14.4092 10.965 14.4942 11.1095L15.5057 12.852L16.5852 11.1095C16.7297 10.88 16.8487 10.7695 17.1547 10.7695C17.4947 10.7695 17.8262 10.9565 17.8262 11.3985C17.8262 11.5175 17.7667 11.679 17.6987 11.7725L16.2792 13.8465L17.6647 15.929C17.6794 15.9515 17.6935 15.9728 17.7069 15.9932C17.8256 16.173 17.8942 16.2769 17.8942 16.422C17.8942 16.8725 17.5712 17.1105 17.1802 17.1105C16.9507 17.1105 16.7552 17.0595 16.5937 16.7875L15.4717 14.909L14.2647 16.8385C14.1457 17.034 13.9332 17.1105 13.7207 17.1105C13.3127 17.1105 13.0492 16.8555 13.0492 16.5155Z" fill="white"/>
<path d="M5.17157 20.8284L5.87868 20.1213L5.87868 20.1213L5.17157 20.8284ZM18.8284 20.8284L18.1213 20.1213L18.1213 20.1213L18.8284 20.8284ZM13.2362 15.98L12.4113 15.4147L12.4087 15.4185L13.2362 15.98ZM14.6982 13.8465L15.5231 14.4118L15.9056 13.8536L15.5297 13.291L14.6982 13.8465ZM13.3637 11.849L12.5317 12.4037L12.5322 12.4045L13.3637 11.849ZM14.4942 11.1095L15.3591 10.6075L15.3562 10.6025L14.4942 11.1095ZM15.5057 12.852L14.6409 13.354L15.4778 14.7958L16.3558 13.3786L15.5057 12.852ZM16.5852 11.1095L15.739 10.5767L15.7351 10.5829L16.5852 11.1095ZM17.6987 11.7725L16.89 11.1843L16.8816 11.1959L16.8735 11.2077L17.6987 11.7725ZM16.2792 13.8465L15.454 13.2817L15.0729 13.8386L15.4467 14.4004L16.2792 13.8465ZM17.6647 15.929L18.5017 15.3817L18.4973 15.3751L17.6647 15.929ZM17.7069 15.9932L18.5415 15.4423L18.5415 15.4423L17.7069 15.9932ZM16.5937 16.7875L17.4536 16.277L17.4522 16.2747L16.5937 16.7875ZM15.4717 14.909L16.3302 14.3962L15.4914 12.9919L14.6239 14.3787L15.4717 14.909ZM14.2647 16.8385L13.4169 16.3081L13.4105 16.3186L14.2647 16.8385ZM5 10C5 8.08611 5.00212 6.75129 5.13753 5.74416C5.26907 4.76579 5.50966 4.2477 5.87868 3.87868L4.46447 2.46447C3.66191 3.26702 3.31672 4.27752 3.15536 5.47766C2.99788 6.64904 3 8.14265 3 10H5ZM5 14V10H3V14H5ZM5.87868 20.1213C5.50966 19.7523 5.26907 19.2342 5.13753 18.2558C5.00212 17.2487 5 15.9139 5 14H3C3 15.8573 2.99788 17.351 3.15536 18.5223C3.31672 19.7225 3.66191 20.733 4.46447 21.5355L5.87868 20.1213ZM12 21C10.0861 21 8.75129 20.9979 7.74416 20.8625C6.76579 20.7309 6.2477 20.4903 5.87868 20.1213L4.46447 21.5355C5.26702 22.3381 6.27752 22.6833 7.47767 22.8446C8.64904 23.0021 10.1427 23 12 23V21ZM18.1213 20.1213C17.7523 20.4903 17.2342 20.7309 16.2558 20.8625C15.2487 20.9979 13.9139 21 12 21V23C13.8573 23 15.351 23.0021 16.5223 22.8446C17.7225 22.6833 18.733 22.3381 19.5355 21.5355L18.1213 20.1213ZM19 14C19 15.9139 18.9979 17.2487 18.8625 18.2558C18.7309 19.2342 18.4903 19.7523 18.1213 20.1213L19.5355 21.5355C20.3381 20.733 20.6833 19.7225 20.8446 18.5223C21.0021 17.351 21 15.8573 21 14H19ZM19 10V14H21V10H19ZM18.1213 3.87868C18.4903 4.2477 18.7309 4.76579 18.8625 5.74416C18.9979 6.75129 19 8.08611 19 10H21C21 8.14265 21.0021 6.64904 20.8446 5.47767C20.6833 4.27752 20.3381 3.26702 19.5355 2.46447L18.1213 3.87868ZM12 3C13.9139 3 15.2487 3.00212 16.2558 3.13753C17.2342 3.26907 17.7523 3.50966 18.1213 3.87868L19.5355 2.46447C18.733 1.66191 17.7225 1.31672 16.5223 1.15536C15.351 0.997876 13.8573 1 12 1V3ZM5.87868 3.87868C6.2477 3.50966 6.76579 3.26907 7.74416 3.13753C8.75129 3.00212 10.0861 3 12 3V1C10.1427 1 8.64904 0.997876 7.47767 1.15536C6.27752 1.31672 5.26702 1.66191 4.46447 2.46447L5.87868 3.87868ZM9.25 5C9.25 5.13807 9.13807 5.25 9 5.25V3.25C8.0335 3.25 7.25 4.0335 7.25 5H9.25ZM9 4.75C9.13807 4.75 9.25 4.86193 9.25 5H7.25C7.25 5.9665 8.0335 6.75 9 6.75V4.75ZM15 4.75H9V6.75H15V4.75ZM14.75 5C14.75 4.86193 14.8619 4.75 15 4.75V6.75C15.9665 6.75 16.75 5.9665 16.75 5H14.75ZM15 5.25C14.8619 5.25 14.75 5.13807 14.75 5H16.75C16.75 4.0335 15.9665 3.25 15 3.25V5.25ZM9 5.25H15V3.25H9V5.25ZM5.646 14.705C5.646 15.7601 5.97937 16.6779 6.7135 17.3124C7.42221 17.925 8.35704 18.1445 9.3065 18.1445V16.1445C8.63246 16.1445 8.23704 15.9857 8.02137 15.7993C7.83113 15.6349 7.646 15.3329 7.646 14.705H5.646ZM5.646 11.4665V14.705H7.646V11.4665H5.646ZM7.343 9.7695C6.90496 9.7695 6.46098 9.91881 6.12494 10.2578C5.79025 10.5954 5.646 11.037 5.646 11.4665H7.646C7.646 11.4795 7.63775 11.5726 7.54531 11.6658C7.45152 11.7604 7.35604 11.7695 7.343 11.7695V9.7695ZM9.04 11.4665C9.04 11.037 8.89575 10.5954 8.56106 10.2578C8.22502 9.91881 7.78104 9.7695 7.343 9.7695V11.7695C7.32996 11.7695 7.23448 11.7604 7.14069 11.6658C7.04825 11.5726 7.04 11.4795 7.04 11.4665H9.04ZM9.04 14.8155V11.4665H7.04V14.8155H9.04ZM9.3065 15.0225C9.0455 15.0225 9.01182 14.96 9.04738 14.9924C9.0652 15.0087 9.06819 15.0215 9.0634 15.0085C9.05666 14.9903 9.04 14.9325 9.04 14.8155H7.04C7.04 15.4176 7.21381 16.0272 7.69987 16.4703C8.16893 16.898 8.7685 17.0225 9.3065 17.0225V15.0225ZM9.573 14.8155C9.573 14.9325 9.55634 14.9903 9.5496 15.0085C9.54481 15.0215 9.5478 15.0087 9.56562 14.9924C9.60118 14.96 9.5675 15.0225 9.3065 15.0225V17.0225C9.8445 17.0225 10.4441 16.898 10.9131 16.4703C11.3992 16.0272 11.573 15.4176 11.573 14.8155H9.573ZM9.573 11.4665V14.8155H11.573V11.4665H9.573ZM11.27 9.7695C10.832 9.7695 10.388 9.91881 10.0519 10.2578C9.71725 10.5954 9.573 11.037 9.573 11.4665H11.573C11.573 11.4795 11.5648 11.5726 11.4723 11.6658C11.3785 11.7604 11.283 11.7695 11.27 11.7695V9.7695ZM12.967 11.4665C12.967 11.037 12.8228 10.5954 12.4881 10.2578C12.152 9.91881 11.708 9.7695 11.27 9.7695V11.7695C11.257 11.7695 11.1615 11.7604 11.0677 11.6658C10.9752 11.5726 10.967 11.4795 10.967 11.4665H12.967ZM12.967 14.705V11.4665H10.967V14.705H12.967ZM9.3065 18.1445C10.256 18.1445 11.1908 17.925 11.8995 17.3124C12.6336 16.6779 12.967 15.7601 12.967 14.705H10.967C10.967 15.3329 10.7819 15.6349 10.5916 15.7993C10.376 15.9857 9.98054 16.1445 9.3065 16.1445V18.1445ZM12.4087 15.4185C12.1358 15.8207 12.0492 16.169 12.0492 16.5155H14.0492C14.0492 16.5091 14.0495 16.5166 14.0476 16.5313C14.0467 16.5386 14.0454 16.5466 14.0436 16.555C14.0418 16.5634 14.0397 16.5711 14.0377 16.5777C14.0334 16.5915 14.0304 16.5967 14.0328 16.5919C14.0355 16.5865 14.0443 16.5702 14.0637 16.5415L12.4087 15.4185ZM13.8733 13.2812L12.4113 15.4147L14.0611 16.5453L15.5231 14.4118L13.8733 13.2812ZM12.5322 12.4045L13.8667 14.402L15.5297 13.291L14.1952 11.2935L12.5322 12.4045ZM12.2192 11.424C12.2192 11.8523 12.3833 12.1811 12.5317 12.4037L14.1958 11.2943C14.1837 11.2761 14.1902 11.2822 14.1994 11.3075C14.21 11.3366 14.2192 11.3777 14.2192 11.424H12.2192ZM13.9162 9.7695C13.0147 9.7695 12.2192 10.4573 12.2192 11.424H14.2192C14.2192 11.5219 14.1763 11.6186 14.1062 11.6852C14.0369 11.7508 13.9617 11.7695 13.9162 11.7695V9.7695ZM15.3562 10.6025C15.1826 10.3075 14.751 9.7695 13.9162 9.7695V11.7695C13.8991 11.7695 13.8663 11.7667 13.8242 11.753C13.7822 11.7393 13.7436 11.7188 13.7111 11.6953C13.6501 11.651 13.6277 11.6087 13.6323 11.6165L15.3562 10.6025ZM16.3706 12.35L15.3591 10.6075L13.6294 11.6115L14.6409 13.354L16.3706 12.35ZM15.7351 10.5829L14.6556 12.3254L16.3558 13.3786L17.4353 11.6361L15.7351 10.5829ZM17.1547 9.7695C16.8785 9.7695 16.5616 9.82056 16.2619 10.0166C15.9871 10.1965 15.827 10.437 15.739 10.5767L17.4315 11.6423C17.4562 11.603 17.4618 11.5981 17.4539 11.6074C17.443 11.6202 17.4112 11.6547 17.3569 11.6902C17.3002 11.7274 17.2432 11.7497 17.1968 11.7612C17.1555 11.7714 17.1365 11.7695 17.1547 11.7695V9.7695ZM18.8262 11.3985C18.8262 10.8999 18.6254 10.4487 18.2491 10.1425C17.9029 9.8609 17.4931 9.7695 17.1547 9.7695V11.7695C17.1498 11.7695 17.1336 11.769 17.1072 11.7608C17.0804 11.7525 17.036 11.7339 16.9869 11.694C16.9353 11.652 16.8896 11.5952 16.8595 11.5292C16.8298 11.4642 16.8262 11.4148 16.8262 11.3985H18.8262ZM18.5075 12.3607C18.6117 12.2174 18.6844 12.0612 18.7321 11.9247C18.7786 11.7915 18.8262 11.6057 18.8262 11.3985H16.8262C16.8262 11.3484 16.8321 11.3139 16.8351 11.2986C16.8385 11.2817 16.8419 11.271 16.8439 11.2654C16.8459 11.2596 16.8488 11.2523 16.8537 11.2426C16.858 11.234 16.869 11.2132 16.89 11.1843L18.5075 12.3607ZM17.1044 14.4113L18.5239 12.3373L16.8735 11.2077L15.454 13.2817L17.1044 14.4113ZM18.4973 15.3751L17.1118 13.2926L15.4467 14.4004L16.8322 16.4829L18.4973 15.3751ZM18.5415 15.4423C18.528 15.4217 18.515 15.4021 18.5017 15.3817L16.8278 16.4763C16.8438 16.5008 16.859 16.5239 16.8723 16.544L18.5415 15.4423ZM18.8942 16.422C18.8942 15.921 18.6179 15.558 18.5415 15.4423L16.8723 16.544C16.9041 16.5921 16.9222 16.6197 16.9363 16.6425C16.9498 16.6642 16.9492 16.6651 16.9437 16.6536C16.9371 16.6399 16.9232 16.6083 16.9118 16.5629C16.9 16.5156 16.8942 16.4674 16.8942 16.422H18.8942ZM17.1802 18.1105C17.5723 18.1105 18.0035 17.9905 18.3501 17.6809C18.7124 17.3572 18.8942 16.9035 18.8942 16.422H16.8942C16.8942 16.414 16.896 16.3787 16.9172 16.3286C16.9389 16.2777 16.9735 16.2288 17.0176 16.1895C17.1049 16.1115 17.1791 16.1105 17.1802 16.1105V18.1105ZM15.7339 17.298C15.8958 17.5707 16.1218 17.8057 16.43 17.9531C16.7217 18.0927 16.9999 18.1105 17.1802 18.1105V16.1105C17.1311 16.1105 17.1967 16.1028 17.2929 16.1489C17.3425 16.1726 17.3841 16.2028 17.4154 16.2329C17.4449 16.2613 17.4558 16.2807 17.4536 16.277L15.7339 17.298ZM14.6132 15.4218L15.7352 17.3003L17.4522 16.2747L16.3302 14.3962L14.6132 15.4218ZM15.1125 17.3688L16.3195 15.4393L14.6239 14.3787L13.4169 16.3082L15.1125 17.3688ZM13.7207 18.1105C14.1507 18.1105 14.7592 17.9494 15.1189 17.3584L13.4105 16.3186C13.464 16.2307 13.5408 16.1712 13.6094 16.1396C13.6702 16.1116 13.7117 16.1105 13.7207 16.1105V18.1105ZM12.0492 16.5155C12.0492 16.9561 12.2258 17.3773 12.5593 17.6804C12.8877 17.979 13.3078 18.1105 13.7207 18.1105V16.1105C13.7257 16.1105 13.81 16.1145 13.9046 16.2006C14.0044 16.2912 14.0492 16.4149 14.0492 16.5155H12.0492Z" fill="black" mask="url(#path-1-outside-1_1906_519)"/>
</svg>
