<svg width="64" height="64" viewBox="0 0 64 64" fill="none" xmlns="http://www.w3.org/2000/svg">
<circle cx="32" cy="32" r="32" fill="black" fill-opacity="0.12"/>
<g clip-path="url(#clip0_1_116)">
<path d="M26.7165 28.2047C27.3386 27.8267 27.6535 27.1416 27.6535 26.181C27.6535 25.118 27.2363 24.4015 26.4095 24.055C25.7165 23.8189 24.8188 23.7007 23.748 23.7007H17.7874V28.7637H24.315C25.2913 28.7637 26.1024 28.5747 26.7165 28.2047ZM26.0709 26.181C26.0709 26.5432 26.008 26.7794 25.8899 26.8503C25.5277 27.0707 25.0001 27.181 24.3072 27.181H19.3702V25.2833H23.7481C24.6222 25.2833 25.3308 25.3699 25.8504 25.5353C25.9292 25.5747 26.0709 25.6376 26.0709 26.181V26.181H26.0709ZM26.6458 32.7321C26.1104 32.488 25.3466 32.3542 24.3859 32.3463H17.7875V38.4408H24.3072C25.2836 38.4408 26.0552 38.3069 26.5985 38.0393C27.5985 37.5432 28.1024 36.5826 28.1024 35.1889C28.1104 34.0078 27.6222 33.181 26.6458 32.7321ZM19.3702 33.929H24.3859C25.3465 33.9369 25.8032 34.0865 25.9922 34.1731C26.2756 34.307 26.5276 34.4801 26.5276 35.1888C26.5276 36.3148 26.1024 36.5195 25.8977 36.6219C25.7481 36.6928 25.3071 36.8582 24.3071 36.8582H19.3701L19.3702 33.929ZM45.134 29.6849C44.4332 29.0864 43.5592 28.7793 42.5277 28.7793C41.4096 28.7793 40.5198 29.1022 39.8978 29.7478C39.2758 30.3856 38.882 31.2596 38.7324 32.3463L38.7245 32.4172H46.323L46.3151 32.3542C46.2285 31.1809 45.8348 30.2833 45.134 29.6849ZM41.0474 30.8266C41.1812 30.6927 41.5434 30.3541 42.5276 30.3541C43.1418 30.3541 43.6379 30.5116 44.0395 30.8266H41.0474ZM52.1024 31.6927C51.8661 30.173 51.3386 28.8108 50.5355 27.6376C49.7953 26.5352 48.8741 25.669 47.7796 25.0391V18.7556H37.2914V25.1021C36.6536 25.4879 36.0709 25.9447 35.5276 26.488C34.2914 27.7321 33.4804 29.3305 33.0788 31.2517C32.7874 30.8265 32.441 30.4407 32.0551 30.1021C32.1004 30.0502 32.1451 29.9977 32.189 29.9446C33.1102 28.8344 33.5748 27.4014 33.5748 25.6769C33.5748 24.0313 33.1338 22.5824 32.2598 21.3699C30.8346 19.4249 28.4882 18.4092 25.2913 18.3541H11.8582V43.7872H24.4881C25.7165 43.7872 26.8897 43.677 27.9606 43.4486C29.1574 43.1967 30.2126 42.7242 31.1023 42.0392C31.8897 41.4486 32.5433 40.7163 33.0629 39.8581C33.2677 39.5352 33.4488 39.1967 33.5984 38.8423C34.1181 40.1101 34.8739 41.1573 35.8818 41.9683C37.8346 43.5431 40.118 44.3384 42.6692 44.3384C45.7715 44.3384 48.244 43.362 50.0156 41.4329C51.1888 40.1888 51.8581 38.8975 52.0156 37.5904L52.1179 36.7085H52.2282L52.2519 35.2124C52.2912 33.7479 52.2361 32.5589 52.1022 31.6928L52.1024 31.6927ZM29.2836 30.1966L29.1576 30.2595L29.2915 30.3068C30.4174 30.7162 31.2757 31.3698 31.8505 32.2596C32.4253 33.1494 32.7167 34.2438 32.7167 35.5037C32.7167 36.8107 32.386 37.9998 31.7245 39.047C31.3073 39.7399 30.7797 40.3226 30.1577 40.7951C29.4569 41.3305 28.6065 41.7084 27.6538 41.9053C26.6852 42.11 25.6301 42.2124 24.5042 42.2124H13.4411V19.9368H25.2285C27.9293 19.9761 29.8663 20.7714 30.9844 22.299C31.6615 23.236 32.0001 24.3699 32.0001 25.6848C32.0001 27.0313 31.6537 28.1257 30.9765 28.9446C30.5907 29.4014 30.0238 29.8187 29.2836 30.1966ZM42.5277 23.7477C42.134 23.7477 41.7481 23.7635 41.3781 23.8028H38.8742V20.3383H46.2049V23.8028H43.701C43.3151 23.7714 42.9214 23.7477 42.5277 23.7477ZM38.6221 35.2123C38.6929 36.8894 39.2836 38.0785 40.386 38.7556C41.0552 39.173 41.8663 39.3856 42.8033 39.3856C43.8033 39.3856 44.6222 39.1257 45.2442 38.6139C45.5827 38.3383 45.882 37.9604 46.134 37.488H50.4489C50.3151 38.4329 49.7875 39.4014 48.8662 40.3778C47.4017 41.9683 45.3229 42.7715 42.6772 42.7715C40.4961 42.7715 38.5434 42.0943 36.882 40.7478C35.2206 39.4092 34.378 37.1888 34.378 34.1651C34.378 31.3305 35.1418 29.1179 36.6378 27.6061C37.9134 26.3226 39.5355 25.5746 41.4646 25.3777H43.6142C44.6142 25.48 45.5433 25.7163 46.3858 26.0942C47.5275 26.606 48.4803 27.4249 49.2205 28.5273C49.8898 29.4958 50.3307 30.6454 50.5275 31.9288C50.6457 32.6847 50.6929 33.7635 50.6693 35.1492H38.622V35.2123H38.6221ZM44.2521 37.3855C43.9056 37.669 43.4332 37.8028 42.8033 37.8028C42.1576 37.8028 41.6458 37.6769 41.2285 37.417C41.0237 37.291 40.7718 37.1021 40.567 36.7241H44.7481C44.5907 37.0233 44.4252 37.2438 44.252 37.3855L44.2521 37.3855Z" fill="white" fill-opacity="0.6"/>
</g>
<defs>
<clipPath id="clip0_1_116">
<rect width="40" height="40" fill="white" transform="translate(12 12)"/>
</clipPath>
</defs>
</svg>
