<svg width="64" height="64" viewBox="0 0 64 64" fill="none" xmlns="http://www.w3.org/2000/svg">
<circle cx="32" cy="32" r="32" fill="black" fill-opacity="0.12"/>
<path d="M38.6667 25.3334C41.3188 25.3334 43.8624 26.3869 45.7377 28.2623C47.6131 30.1377 48.6667 32.6812 48.6667 35.3334V47H42V35.3334C42 34.4493 41.6488 33.6015 41.0237 32.9764C40.3986 32.3512 39.5507 32 38.6667 32C37.7826 32 36.9348 32.3512 36.3097 32.9764C35.6845 33.6015 35.3333 34.4493 35.3333 35.3334V47H28.6667V35.3334C28.6667 32.6812 29.7202 30.1377 31.5956 28.2623C33.471 26.3869 36.0145 25.3334 38.6667 25.3334ZM15.3333 27H22V47H15.3333V27Z" stroke="white" stroke-opacity="0.6" stroke-width="2" stroke-linecap="round" stroke-linejoin="round"/>
<path d="M18.6667 22C20.5076 22 22 20.5077 22 18.6667C22 16.8258 20.5076 15.3334 18.6667 15.3334C16.8257 15.3334 15.3333 16.8258 15.3333 18.6667C15.3333 20.5077 16.8257 22 18.6667 22Z" stroke="white" stroke-opacity="0.6" stroke-width="2" stroke-linecap="round" stroke-linejoin="round"/>
</svg>
