<svg width="64" height="64" viewBox="0 0 64 64" fill="none" xmlns="http://www.w3.org/2000/svg">
<circle cx="32" cy="32" r="32" fill="black" fill-opacity="0.12"/>
<path d="M32 24.5C30.5166 24.5 29.0666 24.9399 27.8332 25.764C26.5999 26.5881 25.6386 27.7594 25.0709 29.1299C24.5032 30.5003 24.3547 32.0083 24.6441 33.4632C24.9335 34.918 25.6478 36.2544 26.6967 37.3033C27.7456 38.3522 29.082 39.0665 30.5368 39.3559C31.9917 39.6453 33.4997 39.4968 34.8701 38.9291C36.2406 38.3614 37.4119 37.4001 38.236 36.1668C39.0601 34.9334 39.5 33.4834 39.5 32C39.5 30.0109 38.7098 28.1032 37.3033 26.6967C35.8968 25.2902 33.9891 24.5 32 24.5ZM32 37C31.0111 37 30.0444 36.7068 29.2221 36.1573C28.3999 35.6079 27.759 34.827 27.3806 33.9134C27.0022 32.9998 26.9031 31.9945 27.0961 31.0245C27.289 30.0546 27.7652 29.1637 28.4645 28.4645C29.1637 27.7652 30.0546 27.289 31.0245 27.0961C31.9945 26.9031 32.9998 27.0022 33.9134 27.3806C34.827 27.759 35.6079 28.3999 36.1573 29.2221C36.7068 30.0444 37 31.0111 37 32C36.9959 33.3248 36.4678 34.5942 35.531 35.531C34.5942 36.4678 33.3248 36.9959 32 37ZM38.875 16.375H25.125C22.8044 16.375 20.5788 17.2969 18.9378 18.9378C17.2969 20.5788 16.375 22.8044 16.375 25.125V38.875C16.375 41.1956 17.2969 43.4212 18.9378 45.0622C20.5788 46.7031 22.8044 47.625 25.125 47.625H38.875C41.1956 47.625 43.4212 46.7031 45.0622 45.0622C46.7031 43.4212 47.625 41.1956 47.625 38.875V25.125C47.625 22.8044 46.7031 20.5788 45.0622 18.9378C43.4212 17.2969 41.1956 16.375 38.875 16.375ZM45.125 38.875C45.125 39.6958 44.9633 40.5085 44.6492 41.2668C44.3352 42.0251 43.8748 42.7141 43.2944 43.2944C42.7141 43.8748 42.0251 44.3352 41.2668 44.6492C40.5085 44.9633 39.6958 45.125 38.875 45.125H25.125C24.3042 45.125 23.4915 44.9633 22.7332 44.6492C21.9749 44.3352 21.2859 43.8748 20.7056 43.2944C20.1252 42.7141 19.6648 42.0251 19.3508 41.2668C19.0367 40.5085 18.875 39.6958 18.875 38.875V25.125C18.875 23.4674 19.5335 21.8777 20.7056 20.7056C21.8777 19.5335 23.4674 18.875 25.125 18.875H38.875C39.6958 18.875 40.5085 19.0367 41.2668 19.3508C42.0251 19.6648 42.7141 20.1252 43.2944 20.7056C43.8748 21.2859 44.3352 21.9749 44.6492 22.7332C44.9633 23.4915 45.125 24.3042 45.125 25.125V38.875ZM42 23.875C42 24.2458 41.89 24.6084 41.684 24.9167C41.478 25.225 41.1851 25.4654 40.8425 25.6073C40.4999 25.7492 40.1229 25.7863 39.7592 25.714C39.3955 25.6416 39.0614 25.463 38.7992 25.2008C38.537 24.9386 38.3584 24.6045 38.286 24.2408C38.2137 23.8771 38.2508 23.5001 38.3927 23.1575C38.5346 22.8149 38.775 22.522 39.0833 22.316C39.3916 22.11 39.7542 22 40.125 22C40.6223 22 41.0992 22.1975 41.4508 22.5492C41.8025 22.9008 42 23.3777 42 23.875Z" fill="white" fill-opacity="0.6"/>
</svg>
