<svg width="29" height="20" viewBox="0 0 29 20" fill="none" xmlns="http://www.w3.org/2000/svg">
<path fill-rule="evenodd" clip-rule="evenodd" d="M-1.75596e-05 10C-1.75712e-05 10.2653 0.105339 10.5196 0.292875 10.7071C0.480411 10.8947 0.734766 11 0.999982 11L24.586 11L18.292 17.292C18.1042 17.4798 17.9987 17.7345 17.9987 18C17.9987 18.2656 18.1042 18.5203 18.292 18.708C18.4798 18.8958 18.7344 19.0013 19 19.0013C19.2655 19.0013 19.5202 18.8958 19.708 18.708L27.708 10.708C27.8011 10.6152 27.875 10.5048 27.9254 10.3833C27.9758 10.2618 28.0018 10.1316 28.0018 10C28.0018 9.86851 27.9758 9.73827 27.9254 9.61678C27.875 9.49529 27.8011 9.38493 27.708 9.29204L19.708 1.29204C19.615 1.19907 19.5046 1.12531 19.3832 1.075C19.2617 1.02468 19.1315 0.998779 19 0.998779C18.7344 0.998779 18.4798 1.10427 18.292 1.29204C18.1042 1.47982 17.9987 1.73449 17.9987 2.00004C17.9987 2.26559 18.1042 2.52027 18.292 2.70804L24.586 9.00004L0.999982 9.00004C0.734766 9.00004 0.480411 9.1054 0.292875 9.29294C0.105339 9.48047 -1.7548e-05 9.73482 -1.75596e-05 10Z" fill="black"/>
</svg>
